<mxfile host="app.diagrams.net" modified="2021-12-17T10:50:57.071Z" agent="5.0 (Windows)" etag="LDg-XpsToqOXMry9AvZ1" version="15.9.6" type="github">
  <diagram id="C5RBs43oDa-KdzZeNtuy" name="Page-1">
    <mxGraphModel dx="2135" dy="1092" grid="1" gridSize="10" guides="1" tooltips="1" connect="1" arrows="1" fold="1" page="0" pageScale="1" pageWidth="827" pageHeight="1169" background="none" math="0" shadow="0">
      <root>
        <mxCell id="WIyWlLk6GJQsqaUBKTNV-0" />
        <mxCell id="WIyWlLk6GJQsqaUBKTNV-1" parent="WIyWlLk6GJQsqaUBKTNV-0" />
        <mxCell id="oz0YalD53Wy_oq5XSP2Q-18" value="User" style="swimlane;fontStyle=1;childLayout=stackLayout;horizontal=1;startSize=20;fillColor=none;horizontalStack=0;resizeParent=1;resizeParentMax=0;resizeLast=0;collapsible=1;marginBottom=0;strokeColor=none;" parent="WIyWlLk6GJQsqaUBKTNV-1" vertex="1">
          <mxGeometry x="110" y="12.13" width="240" height="110" as="geometry" />
        </mxCell>
        <mxCell id="iWTWJFSF4S6hdbPV3pCy-82" value="" style="line;strokeWidth=1;fillColor=none;align=left;verticalAlign=middle;spacingTop=-1;spacingLeft=3;spacingRight=3;rotatable=0;labelPosition=right;points=[];portConstraint=eastwest;" parent="oz0YalD53Wy_oq5XSP2Q-18" vertex="1">
          <mxGeometry y="20" width="240" height="8" as="geometry" />
        </mxCell>
        <mxCell id="iWTWJFSF4S6hdbPV3pCy-84" value="" style="line;strokeWidth=1;fillColor=none;align=left;verticalAlign=middle;spacingTop=-1;spacingLeft=3;spacingRight=3;rotatable=0;labelPosition=right;points=[];portConstraint=eastwest;" parent="oz0YalD53Wy_oq5XSP2Q-18" vertex="1">
          <mxGeometry y="28" width="240" height="8" as="geometry" />
        </mxCell>
        <mxCell id="oz0YalD53Wy_oq5XSP2Q-21" value="+ User(fName: string, lName: string):User&#xa;+ viewTimeTable(route: Route) : void&#xa;+ viewRouteMap(): void&#xa;+ viewFareDetails(): void&#xa;&#xa;&#xa;" style="text;strokeColor=none;fillColor=none;align=left;verticalAlign=top;spacingLeft=4;spacingRight=4;overflow=hidden;rotatable=0;points=[[0,0.5],[1,0.5]];portConstraint=eastwest;" parent="oz0YalD53Wy_oq5XSP2Q-18" vertex="1">
          <mxGeometry y="36" width="240" height="74" as="geometry" />
        </mxCell>
        <mxCell id="Xz_mgDwDdjF8GATbOrgD-69" value="" style="endArrow=none;html=1;rounded=0;dashed=1;dashPattern=1 2;exitX=1;exitY=0.37;exitDx=0;exitDy=0;exitPerimeter=0;strokeColor=none;" parent="oz0YalD53Wy_oq5XSP2Q-18" target="iWTWJFSF4S6hdbPV3pCy-45" edge="1">
          <mxGeometry relative="1" as="geometry">
            <mxPoint x="150" y="94.57" as="sourcePoint" />
            <mxPoint x="370" y="94.57" as="targetPoint" />
          </mxGeometry>
        </mxCell>
        <mxCell id="Xz_mgDwDdjF8GATbOrgD-70" value="1" style="resizable=0;html=1;align=left;verticalAlign=bottom;fontStyle=1" parent="Xz_mgDwDdjF8GATbOrgD-69" connectable="0" vertex="1">
          <mxGeometry x="-1" relative="1" as="geometry">
            <mxPoint x="80" y="13" as="offset" />
          </mxGeometry>
        </mxCell>
        <mxCell id="Xz_mgDwDdjF8GATbOrgD-71" value="0..*" style="resizable=0;html=1;align=right;verticalAlign=bottom;fontStyle=1" parent="Xz_mgDwDdjF8GATbOrgD-69" connectable="0" vertex="1">
          <mxGeometry x="1" relative="1" as="geometry">
            <mxPoint x="-83" y="-251" as="offset" />
          </mxGeometry>
        </mxCell>
        <mxCell id="oz0YalD53Wy_oq5XSP2Q-30" value="Admin" style="swimlane;fontStyle=1;align=center;verticalAlign=top;childLayout=stackLayout;horizontal=1;startSize=26;horizontalStack=0;resizeParent=1;resizeParentMax=0;resizeLast=0;collapsible=1;marginBottom=0;strokeColor=none;fillColor=none;" parent="WIyWlLk6GJQsqaUBKTNV-1" vertex="1">
          <mxGeometry x="380" y="31.5" width="240" height="202" as="geometry" />
        </mxCell>
        <mxCell id="iWTWJFSF4S6hdbPV3pCy-29" value="" style="line;strokeWidth=1;fillColor=none;align=left;verticalAlign=middle;spacingTop=-1;spacingLeft=3;spacingRight=3;rotatable=0;labelPosition=right;points=[];portConstraint=eastwest;" parent="oz0YalD53Wy_oq5XSP2Q-30" vertex="1">
          <mxGeometry y="26" width="240" height="8" as="geometry" />
        </mxCell>
        <mxCell id="iWTWJFSF4S6hdbPV3pCy-27" value="- «get/set» email: string&#xa;- «get/set» id: string&#xa;- «get/set» password: string" style="text;strokeColor=none;fillColor=none;align=left;verticalAlign=top;spacingLeft=4;spacingRight=4;overflow=hidden;rotatable=0;points=[[0,0.5],[1,0.5]];portConstraint=eastwest;" parent="oz0YalD53Wy_oq5XSP2Q-30" vertex="1">
          <mxGeometry y="34" width="240" height="56" as="geometry" />
        </mxCell>
        <mxCell id="iWTWJFSF4S6hdbPV3pCy-28" value="" style="line;strokeWidth=1;fillColor=none;align=left;verticalAlign=middle;spacingTop=-1;spacingLeft=3;spacingRight=3;rotatable=0;labelPosition=right;points=[];portConstraint=eastwest;" parent="oz0YalD53Wy_oq5XSP2Q-30" vertex="1">
          <mxGeometry y="90" width="240" height="8" as="geometry" />
        </mxCell>
        <mxCell id="oz0YalD53Wy_oq5XSP2Q-33" value="+ Admin(fName: string, lName: string): Amdin&#xa;+ login(): bool+ logout(): void&#xa;+ addRoute(route: Route): void&#xa;+ addStation(): void&#xa;+ addTrain(): void&#xa;+ updateFare(): void" style="text;strokeColor=none;fillColor=none;align=left;verticalAlign=top;spacingLeft=4;spacingRight=4;overflow=hidden;rotatable=0;points=[[0,0.5],[1,0.5]];portConstraint=eastwest;" parent="oz0YalD53Wy_oq5XSP2Q-30" vertex="1">
          <mxGeometry y="98" width="240" height="104" as="geometry" />
        </mxCell>
        <mxCell id="oz0YalD53Wy_oq5XSP2Q-39" value="Person" style="swimlane;fontStyle=1;align=center;verticalAlign=top;childLayout=stackLayout;horizontal=1;startSize=30;horizontalStack=0;resizeParent=1;resizeParentMax=0;resizeLast=0;collapsible=1;marginBottom=0;strokeColor=none;fillColor=none;" parent="WIyWlLk6GJQsqaUBKTNV-1" vertex="1">
          <mxGeometry x="233" y="-180" width="197" height="121.25" as="geometry">
            <mxRectangle x="30" y="-140" width="70" height="26" as="alternateBounds" />
          </mxGeometry>
        </mxCell>
        <mxCell id="iWTWJFSF4S6hdbPV3pCy-21" value="" style="line;strokeWidth=1;fillColor=none;align=left;verticalAlign=middle;spacingTop=-1;spacingLeft=3;spacingRight=3;rotatable=0;labelPosition=right;points=[];portConstraint=eastwest;" parent="oz0YalD53Wy_oq5XSP2Q-39" vertex="1">
          <mxGeometry y="30" width="197" height="8" as="geometry" />
        </mxCell>
        <mxCell id="oz0YalD53Wy_oq5XSP2Q-40" value="- «get/set» firstName: string&#xa;- «get/set» lastName: string&#xa;&#xa;&#xa;&#xa;" style="text;strokeColor=none;fillColor=none;align=left;verticalAlign=top;spacingLeft=4;spacingRight=4;overflow=hidden;rotatable=0;points=[[0,0.5],[1,0.5]];portConstraint=eastwest;" parent="oz0YalD53Wy_oq5XSP2Q-39" vertex="1">
          <mxGeometry y="38" width="197" height="40" as="geometry" />
        </mxCell>
        <mxCell id="oz0YalD53Wy_oq5XSP2Q-41" value="" style="line;strokeWidth=1;fillColor=none;align=left;verticalAlign=middle;spacingTop=-1;spacingLeft=3;spacingRight=3;rotatable=0;labelPosition=right;points=[];portConstraint=eastwest;" parent="oz0YalD53Wy_oq5XSP2Q-39" vertex="1">
          <mxGeometry y="78" width="197" height="8" as="geometry" />
        </mxCell>
        <mxCell id="oKMgDRfPAerwbWezPVLL-0" value="+ person(f: string, l: string) : Person" style="text;strokeColor=none;fillColor=none;align=left;verticalAlign=top;spacingLeft=4;spacingRight=4;overflow=hidden;rotatable=0;points=[[0,0.5],[1,0.5]];portConstraint=eastwest;" vertex="1" parent="oz0YalD53Wy_oq5XSP2Q-39">
          <mxGeometry y="86" width="197" height="35.25" as="geometry" />
        </mxCell>
        <mxCell id="oz0YalD53Wy_oq5XSP2Q-43" value="" style="edgeStyle=none;html=1;endSize=12;endArrow=block;endFill=0;rounded=0;exitX=1;exitY=0;exitDx=0;exitDy=0;" parent="WIyWlLk6GJQsqaUBKTNV-1" source="iWTWJFSF4S6hdbPV3pCy-74" target="oz0YalD53Wy_oq5XSP2Q-39" edge="1">
          <mxGeometry width="160" relative="1" as="geometry">
            <mxPoint x="170" y="-50" as="sourcePoint" />
            <mxPoint x="300" y="-120" as="targetPoint" />
          </mxGeometry>
        </mxCell>
        <mxCell id="oz0YalD53Wy_oq5XSP2Q-46" value="" style="edgeStyle=none;html=1;endSize=12;endArrow=block;endFill=0;rounded=0;exitX=0;exitY=0;exitDx=0;exitDy=0;" parent="WIyWlLk6GJQsqaUBKTNV-1" source="iWTWJFSF4S6hdbPV3pCy-33" target="oz0YalD53Wy_oq5XSP2Q-39" edge="1">
          <mxGeometry width="160" relative="1" as="geometry">
            <mxPoint x="347" y="140" as="sourcePoint" />
            <mxPoint x="340" y="-120" as="targetPoint" />
          </mxGeometry>
        </mxCell>
        <mxCell id="oz0YalD53Wy_oq5XSP2Q-47" value="UnrgstrdUsr&#xa;" style="swimlane;fontStyle=1;align=center;verticalAlign=top;childLayout=stackLayout;horizontal=1;startSize=26;horizontalStack=0;resizeParent=1;resizeParentMax=0;resizeLast=0;collapsible=1;marginBottom=0;strokeColor=none;fillColor=none;" parent="WIyWlLk6GJQsqaUBKTNV-1" vertex="1">
          <mxGeometry x="121" y="229.5" width="250" height="76" as="geometry">
            <mxRectangle x="-90" y="352" width="130" height="26" as="alternateBounds" />
          </mxGeometry>
        </mxCell>
        <mxCell id="iWTWJFSF4S6hdbPV3pCy-85" value="" style="line;strokeWidth=1;fillColor=none;align=left;verticalAlign=middle;spacingTop=-1;spacingLeft=3;spacingRight=3;rotatable=0;labelPosition=right;points=[];portConstraint=eastwest;" parent="oz0YalD53Wy_oq5XSP2Q-47" vertex="1">
          <mxGeometry y="26" width="250" height="8" as="geometry" />
        </mxCell>
        <mxCell id="iWTWJFSF4S6hdbPV3pCy-86" value="" style="line;strokeWidth=1;fillColor=none;align=left;verticalAlign=middle;spacingTop=-1;spacingLeft=3;spacingRight=3;rotatable=0;labelPosition=right;points=[];portConstraint=eastwest;" parent="oz0YalD53Wy_oq5XSP2Q-47" vertex="1">
          <mxGeometry y="34" width="250" height="8" as="geometry" />
        </mxCell>
        <mxCell id="oz0YalD53Wy_oq5XSP2Q-50" value="+ UnrgstrdUsr(f: string, l: string):UnrgstrdUsr&#xa;+ register(): void" style="text;strokeColor=none;fillColor=none;align=left;verticalAlign=top;spacingLeft=4;spacingRight=4;overflow=hidden;rotatable=0;points=[[0,0.5],[1,0.5]];portConstraint=eastwest;" parent="oz0YalD53Wy_oq5XSP2Q-47" vertex="1">
          <mxGeometry y="42" width="250" height="34" as="geometry" />
        </mxCell>
        <mxCell id="oz0YalD53Wy_oq5XSP2Q-51" value="RegisteredUsr" style="swimlane;fontStyle=1;align=center;verticalAlign=top;childLayout=stackLayout;horizontal=1;startSize=22;horizontalStack=0;resizeParent=1;resizeParentMax=0;resizeLast=0;collapsible=1;marginBottom=0;strokeColor=none;rotation=0;fillColor=none;" parent="WIyWlLk6GJQsqaUBKTNV-1" vertex="1">
          <mxGeometry x="-109.5" y="256.75" width="231" height="160" as="geometry">
            <mxRectangle x="-330" y="296" width="120" height="26" as="alternateBounds" />
          </mxGeometry>
        </mxCell>
        <mxCell id="iWTWJFSF4S6hdbPV3pCy-95" value="" style="line;strokeWidth=1;fillColor=none;align=left;verticalAlign=middle;spacingTop=-1;spacingLeft=3;spacingRight=3;rotatable=0;labelPosition=right;points=[];portConstraint=eastwest;" parent="oz0YalD53Wy_oq5XSP2Q-51" vertex="1">
          <mxGeometry y="22" width="231" height="8" as="geometry" />
        </mxCell>
        <mxCell id="33fXCFxnljWOuSpnzhvU-42" value="- «get/set» id: string&#xa;- «get/set» creditCardNo: string&#xa;- «get/set» email: string&#xa;- «get/set» password: string&#xa;- «get/set» phone: string&#xa;" style="text;strokeColor=none;fillColor=none;align=left;verticalAlign=middle;spacingLeft=4;spacingRight=4;overflow=hidden;points=[[0,0.5],[1,0.5]];portConstraint=eastwest;rotatable=0;glass=0;" parent="oz0YalD53Wy_oq5XSP2Q-51" vertex="1">
          <mxGeometry y="30" width="231" height="70" as="geometry" />
        </mxCell>
        <mxCell id="iWTWJFSF4S6hdbPV3pCy-96" value="" style="line;strokeWidth=1;fillColor=none;align=left;verticalAlign=middle;spacingTop=-1;spacingLeft=3;spacingRight=3;rotatable=0;labelPosition=right;points=[];portConstraint=eastwest;" parent="oz0YalD53Wy_oq5XSP2Q-51" vertex="1">
          <mxGeometry y="100" width="231" height="8" as="geometry" />
        </mxCell>
        <mxCell id="oz0YalD53Wy_oq5XSP2Q-52" value="+ RgstrdUser(f: string, l: string):RgstrdUsr&#xa;+ reserve ticket(): void+ login(): bool&#xa;+ logout(): void" style="text;strokeColor=none;fillColor=none;align=left;verticalAlign=top;spacingLeft=4;spacingRight=4;overflow=hidden;rotatable=0;points=[[0,0.5],[1,0.5]];portConstraint=eastwest;rotation=0;" parent="oz0YalD53Wy_oq5XSP2Q-51" vertex="1">
          <mxGeometry y="108" width="231" height="52" as="geometry" />
        </mxCell>
        <mxCell id="oz0YalD53Wy_oq5XSP2Q-53" value="RegularUser&#xa;" style="swimlane;fontStyle=1;align=center;verticalAlign=top;childLayout=stackLayout;horizontal=1;startSize=26;horizontalStack=0;resizeParent=1;resizeParentMax=0;resizeLast=0;collapsible=1;marginBottom=0;strokeColor=none;fillColor=none;" parent="WIyWlLk6GJQsqaUBKTNV-1" vertex="1">
          <mxGeometry x="-252" y="487.5" width="250" height="76" as="geometry">
            <mxRectangle x="-460" y="440" width="100" height="26" as="alternateBounds" />
          </mxGeometry>
        </mxCell>
        <mxCell id="iWTWJFSF4S6hdbPV3pCy-94" value="" style="line;strokeWidth=1;fillColor=none;align=left;verticalAlign=middle;spacingTop=-1;spacingLeft=3;spacingRight=3;rotatable=0;labelPosition=right;points=[];portConstraint=eastwest;" parent="oz0YalD53Wy_oq5XSP2Q-53" vertex="1">
          <mxGeometry y="26" width="250" height="8" as="geometry" />
        </mxCell>
        <mxCell id="iWTWJFSF4S6hdbPV3pCy-93" value="" style="line;strokeWidth=1;fillColor=none;align=left;verticalAlign=middle;spacingTop=-1;spacingLeft=3;spacingRight=3;rotatable=0;labelPosition=right;points=[];portConstraint=eastwest;" parent="oz0YalD53Wy_oq5XSP2Q-53" vertex="1">
          <mxGeometry y="34" width="250" height="8" as="geometry" />
        </mxCell>
        <mxCell id="oz0YalD53Wy_oq5XSP2Q-54" value="+ RegularUser(f: string, l: string):RegularUser&#xa;+ requestSmartCard(): void" style="text;strokeColor=none;fillColor=none;align=left;verticalAlign=top;spacingLeft=4;spacingRight=4;overflow=hidden;rotatable=0;points=[[0,0.5],[1,0.5]];portConstraint=eastwest;" parent="oz0YalD53Wy_oq5XSP2Q-53" vertex="1">
          <mxGeometry y="42" width="250" height="34" as="geometry" />
        </mxCell>
        <mxCell id="oz0YalD53Wy_oq5XSP2Q-55" value="SmartCardOwner&#xa;" style="swimlane;fontStyle=1;align=center;verticalAlign=top;childLayout=stackLayout;horizontal=1;startSize=26;horizontalStack=0;resizeParent=1;resizeParentMax=0;resizeLast=0;collapsible=1;marginBottom=0;strokeColor=none;fillColor=none;" parent="WIyWlLk6GJQsqaUBKTNV-1" vertex="1">
          <mxGeometry x="-139" y="570.5" width="309" height="76" as="geometry">
            <mxRectangle x="-270" y="440" width="130" height="26" as="alternateBounds" />
          </mxGeometry>
        </mxCell>
        <mxCell id="iWTWJFSF4S6hdbPV3pCy-88" value="" style="line;strokeWidth=1;fillColor=none;align=left;verticalAlign=middle;spacingTop=-1;spacingLeft=3;spacingRight=3;rotatable=0;labelPosition=right;points=[];portConstraint=eastwest;" parent="oz0YalD53Wy_oq5XSP2Q-55" vertex="1">
          <mxGeometry y="26" width="309" height="8" as="geometry" />
        </mxCell>
        <mxCell id="iWTWJFSF4S6hdbPV3pCy-89" value="" style="line;strokeWidth=1;fillColor=none;align=left;verticalAlign=middle;spacingTop=-1;spacingLeft=3;spacingRight=3;rotatable=0;labelPosition=right;points=[];portConstraint=eastwest;" parent="oz0YalD53Wy_oq5XSP2Q-55" vertex="1">
          <mxGeometry y="34" width="309" height="8" as="geometry" />
        </mxCell>
        <mxCell id="oz0YalD53Wy_oq5XSP2Q-56" value="+ SmartCardOwner(f: string, l: string):SmartCardOwner&#xa;+ rechargeSmartCard(): void" style="text;strokeColor=none;fillColor=none;align=left;verticalAlign=top;spacingLeft=4;spacingRight=4;overflow=hidden;rotatable=0;points=[[0,0.5],[1,0.5]];portConstraint=eastwest;" parent="oz0YalD53Wy_oq5XSP2Q-55" vertex="1">
          <mxGeometry y="42" width="309" height="34" as="geometry" />
        </mxCell>
        <mxCell id="Xz_mgDwDdjF8GATbOrgD-49" value="" style="endArrow=none;html=1;rounded=0;dashed=1;dashPattern=1 2;strokeColor=none;" parent="oz0YalD53Wy_oq5XSP2Q-55" target="iWTWJFSF4S6hdbPV3pCy-107" edge="1">
          <mxGeometry relative="1" as="geometry">
            <mxPoint x="86" y="68.5" as="sourcePoint" />
            <mxPoint x="246" y="68.5" as="targetPoint" />
          </mxGeometry>
        </mxCell>
        <mxCell id="Xz_mgDwDdjF8GATbOrgD-50" value="1" style="resizable=0;html=1;align=left;verticalAlign=bottom;fontStyle=1" parent="Xz_mgDwDdjF8GATbOrgD-49" connectable="0" vertex="1">
          <mxGeometry x="-1" relative="1" as="geometry">
            <mxPoint x="103" y="21" as="offset" />
          </mxGeometry>
        </mxCell>
        <mxCell id="Xz_mgDwDdjF8GATbOrgD-51" value="1" style="resizable=0;html=1;align=right;verticalAlign=bottom;fontStyle=1" parent="Xz_mgDwDdjF8GATbOrgD-49" connectable="0" vertex="1">
          <mxGeometry x="1" relative="1" as="geometry">
            <mxPoint x="6" y="-6" as="offset" />
          </mxGeometry>
        </mxCell>
        <mxCell id="oz0YalD53Wy_oq5XSP2Q-57" value="" style="edgeStyle=none;html=1;endSize=12;endArrow=block;endFill=0;rounded=0;entryX=0.186;entryY=1.008;entryDx=0;entryDy=0;entryPerimeter=0;exitX=1;exitY=0.5;exitDx=0;exitDy=0;" parent="WIyWlLk6GJQsqaUBKTNV-1" source="iWTWJFSF4S6hdbPV3pCy-101" target="oz0YalD53Wy_oq5XSP2Q-21" edge="1">
          <mxGeometry width="160" relative="1" as="geometry">
            <mxPoint x="100" y="171.5" as="sourcePoint" />
            <mxPoint x="90" y="191.5" as="targetPoint" />
          </mxGeometry>
        </mxCell>
        <mxCell id="oz0YalD53Wy_oq5XSP2Q-59" value="" style="edgeStyle=none;html=1;endSize=12;endArrow=block;endFill=0;rounded=0;exitX=0.5;exitY=0;exitDx=0;exitDy=0;" parent="WIyWlLk6GJQsqaUBKTNV-1" source="iWTWJFSF4S6hdbPV3pCy-100" target="oz0YalD53Wy_oq5XSP2Q-21" edge="1">
          <mxGeometry width="160" relative="1" as="geometry">
            <mxPoint x="244" y="181.5" as="sourcePoint" />
            <mxPoint x="300" y="171.5" as="targetPoint" />
          </mxGeometry>
        </mxCell>
        <mxCell id="oz0YalD53Wy_oq5XSP2Q-61" value="" style="edgeStyle=none;html=1;endSize=12;endArrow=block;endFill=0;rounded=0;exitX=0.5;exitY=0;exitDx=0;exitDy=0;" parent="WIyWlLk6GJQsqaUBKTNV-1" source="iWTWJFSF4S6hdbPV3pCy-104" target="oz0YalD53Wy_oq5XSP2Q-52" edge="1">
          <mxGeometry width="160" relative="1" as="geometry">
            <mxPoint x="-47" y="393.5" as="sourcePoint" />
            <mxPoint x="-50" y="481.5" as="targetPoint" />
          </mxGeometry>
        </mxCell>
        <mxCell id="wLO17Js8CSukOj2f2Co--0" value="Route" style="swimlane;fontStyle=1;align=center;verticalAlign=top;childLayout=stackLayout;horizontal=1;startSize=20;horizontalStack=0;resizeParent=1;resizeParentMax=0;resizeLast=0;collapsible=1;marginBottom=0;strokeColor=none;fillColor=none;" parent="WIyWlLk6GJQsqaUBKTNV-1" vertex="1">
          <mxGeometry x="875" y="352" width="180" height="143.25" as="geometry" />
        </mxCell>
        <mxCell id="iWTWJFSF4S6hdbPV3pCy-62" value="" style="line;strokeWidth=1;fillColor=none;align=left;verticalAlign=middle;spacingTop=-1;spacingLeft=3;spacingRight=3;rotatable=0;labelPosition=right;points=[];portConstraint=eastwest;" parent="wLO17Js8CSukOj2f2Co--0" vertex="1">
          <mxGeometry y="20" width="180" height="8" as="geometry" />
        </mxCell>
        <mxCell id="wLO17Js8CSukOj2f2Co--1" value="- «get/set» id: string&#xa;- «get/set» fare: Fare&#xa;- «get/set» trainsInterval: time&#xa;- «get/set» stations[]: Station" style="text;strokeColor=none;fillColor=none;align=left;verticalAlign=top;spacingLeft=4;spacingRight=4;overflow=hidden;rotatable=0;points=[[0,0.5],[1,0.5]];portConstraint=eastwest;" parent="wLO17Js8CSukOj2f2Co--0" vertex="1">
          <mxGeometry y="28" width="180" height="72" as="geometry" />
        </mxCell>
        <mxCell id="wLO17Js8CSukOj2f2Co--2" value="" style="line;strokeWidth=1;fillColor=none;align=left;verticalAlign=middle;spacingTop=-1;spacingLeft=3;spacingRight=3;rotatable=0;labelPosition=right;points=[];portConstraint=eastwest;" parent="wLO17Js8CSukOj2f2Co--0" vertex="1">
          <mxGeometry y="100" width="180" height="8" as="geometry" />
        </mxCell>
        <mxCell id="3VAejhClfT207Y6dodz3-6" value="+ Route() : Route" style="text;strokeColor=none;fillColor=none;align=left;verticalAlign=top;spacingLeft=4;spacingRight=4;overflow=hidden;rotatable=0;points=[[0,0.5],[1,0.5]];portConstraint=eastwest;" parent="wLO17Js8CSukOj2f2Co--0" vertex="1">
          <mxGeometry y="108" width="180" height="35.25" as="geometry" />
        </mxCell>
        <mxCell id="wLO17Js8CSukOj2f2Co--5" value="" style="edgeStyle=none;html=1;endArrow=open;endSize=12;verticalAlign=bottom;rounded=0;entryX=1;entryY=0.5;entryDx=0;entryDy=0;" parent="WIyWlLk6GJQsqaUBKTNV-1" source="iWTWJFSF4S6hdbPV3pCy-30" target="iWTWJFSF4S6hdbPV3pCy-33" edge="1">
          <mxGeometry x="0.1197" y="-7" width="160" relative="1" as="geometry">
            <mxPoint x="397" y="260" as="sourcePoint" />
            <mxPoint x="610" y="-20" as="targetPoint" />
            <mxPoint as="offset" />
          </mxGeometry>
        </mxCell>
        <mxCell id="wLO17Js8CSukOj2f2Co--6" value="AdminController" style="swimlane;fontStyle=1;align=center;verticalAlign=top;childLayout=stackLayout;horizontal=1;startSize=20;horizontalStack=0;resizeParent=1;resizeParentMax=0;resizeLast=0;collapsible=1;marginBottom=0;strokeColor=none;fillColor=none;" parent="WIyWlLk6GJQsqaUBKTNV-1" vertex="1">
          <mxGeometry x="635" y="51.5" width="300" height="170" as="geometry">
            <mxRectangle x="625" y="40" width="120" height="20" as="alternateBounds" />
          </mxGeometry>
        </mxCell>
        <mxCell id="iWTWJFSF4S6hdbPV3pCy-26" value="" style="line;strokeWidth=1;fillColor=none;align=left;verticalAlign=middle;spacingTop=-1;spacingLeft=3;spacingRight=3;rotatable=0;labelPosition=right;points=[];portConstraint=eastwest;" parent="wLO17Js8CSukOj2f2Co--6" vertex="1">
          <mxGeometry y="20" width="300" height="8" as="geometry" />
        </mxCell>
        <mxCell id="wLO17Js8CSukOj2f2Co--7" value="- «get/set» adminId: string&#xa;- «get/set» routes[]: Route&#xa;" style="text;strokeColor=none;fillColor=none;align=left;verticalAlign=top;spacingLeft=4;spacingRight=4;overflow=hidden;rotatable=0;points=[[0,0.5],[1,0.5]];portConstraint=eastwest;" parent="wLO17Js8CSukOj2f2Co--6" vertex="1">
          <mxGeometry y="28" width="300" height="42" as="geometry" />
        </mxCell>
        <mxCell id="wLO17Js8CSukOj2f2Co--8" value="" style="line;strokeWidth=1;fillColor=none;align=left;verticalAlign=middle;spacingTop=-1;spacingLeft=3;spacingRight=3;rotatable=0;labelPosition=right;points=[];portConstraint=eastwest;" parent="wLO17Js8CSukOj2f2Co--6" vertex="1">
          <mxGeometry y="70" width="300" height="8" as="geometry" />
        </mxCell>
        <mxCell id="wLO17Js8CSukOj2f2Co--9" value="+ AdminController(adminId: string) : AdminController&#xa;+ addRoute(route: Route): void&#xa;+ getFare(string routeId): double&#xa;+ setFare(string routeId, double fare): void&#xa;+ addStation(string routeId, Station station): void" style="text;strokeColor=none;fillColor=none;align=left;verticalAlign=top;spacingLeft=4;spacingRight=4;overflow=hidden;rotatable=0;points=[[0,0.5],[1,0.5]];portConstraint=eastwest;" parent="wLO17Js8CSukOj2f2Co--6" vertex="1">
          <mxGeometry y="78" width="300" height="92" as="geometry" />
        </mxCell>
        <mxCell id="0wf969HlVB6r5j6Vj_XR-4" value="Station" style="swimlane;fontStyle=1;align=center;verticalAlign=top;childLayout=stackLayout;horizontal=1;startSize=20;horizontalStack=0;resizeParent=1;resizeParentMax=0;resizeLast=0;collapsible=1;marginBottom=0;fillColor=none;strokeColor=none;" parent="WIyWlLk6GJQsqaUBKTNV-1" vertex="1">
          <mxGeometry x="1113" y="352" width="180" height="143.25" as="geometry" />
        </mxCell>
        <mxCell id="iWTWJFSF4S6hdbPV3pCy-34" value="" style="line;strokeWidth=1;fillColor=none;align=left;verticalAlign=middle;spacingTop=-1;spacingLeft=3;spacingRight=3;rotatable=0;labelPosition=right;points=[];portConstraint=eastwest;" parent="0wf969HlVB6r5j6Vj_XR-4" vertex="1">
          <mxGeometry y="20" width="180" height="8" as="geometry" />
        </mxCell>
        <mxCell id="0wf969HlVB6r5j6Vj_XR-5" value="- «get/set» id: string&#xa;- «get/set» name: string&#xa;- «get/set» location: Location&#xa;- «get/set» ETA: Time" style="text;strokeColor=none;fillColor=none;align=left;verticalAlign=top;spacingLeft=4;spacingRight=4;overflow=hidden;rotatable=0;points=[[0,0.5],[1,0.5]];portConstraint=eastwest;" parent="0wf969HlVB6r5j6Vj_XR-4" vertex="1">
          <mxGeometry y="28" width="180" height="72" as="geometry" />
        </mxCell>
        <mxCell id="0wf969HlVB6r5j6Vj_XR-6" value="" style="line;strokeWidth=1;fillColor=none;align=left;verticalAlign=middle;spacingTop=-1;spacingLeft=3;spacingRight=3;rotatable=0;labelPosition=right;points=[];portConstraint=eastwest;" parent="0wf969HlVB6r5j6Vj_XR-4" vertex="1">
          <mxGeometry y="100" width="180" height="8" as="geometry" />
        </mxCell>
        <mxCell id="3VAejhClfT207Y6dodz3-5" value="+ Station(name: string) : Station" style="text;strokeColor=none;fillColor=none;align=left;verticalAlign=top;spacingLeft=4;spacingRight=4;overflow=hidden;rotatable=0;points=[[0,0.5],[1,0.5]];portConstraint=eastwest;" parent="0wf969HlVB6r5j6Vj_XR-4" vertex="1">
          <mxGeometry y="108" width="180" height="35.25" as="geometry" />
        </mxCell>
        <mxCell id="33fXCFxnljWOuSpnzhvU-0" value="" style="endArrow=open;html=1;endSize=12;startArrow=diamondThin;startSize=14;startFill=0;edgeStyle=orthogonalEdgeStyle;align=left;verticalAlign=bottom;rounded=0;entryX=0;entryY=0.5;entryDx=0;entryDy=0;" parent="WIyWlLk6GJQsqaUBKTNV-1" source="wLO17Js8CSukOj2f2Co--1" target="0wf969HlVB6r5j6Vj_XR-5" edge="1">
          <mxGeometry x="-1" y="3" relative="1" as="geometry">
            <mxPoint x="1005" y="435" as="sourcePoint" />
            <mxPoint x="1055" y="412" as="targetPoint" />
            <Array as="points" />
          </mxGeometry>
        </mxCell>
        <mxCell id="33fXCFxnljWOuSpnzhvU-5" value="RouteMap&#xa;" style="swimlane;fontStyle=1;align=center;verticalAlign=top;childLayout=stackLayout;horizontal=1;startSize=26;horizontalStack=0;resizeParent=1;resizeParentMax=0;resizeLast=0;collapsible=1;marginBottom=0;fillColor=none;strokeColor=none;" parent="WIyWlLk6GJQsqaUBKTNV-1" vertex="1">
          <mxGeometry x="652.5" y="696.5" width="207.5" height="123.25" as="geometry" />
        </mxCell>
        <mxCell id="iWTWJFSF4S6hdbPV3pCy-80" value="" style="line;strokeWidth=1;fillColor=none;align=left;verticalAlign=middle;spacingTop=-1;spacingLeft=3;spacingRight=3;rotatable=0;labelPosition=right;points=[];portConstraint=eastwest;" parent="33fXCFxnljWOuSpnzhvU-5" vertex="1">
          <mxGeometry y="26" width="207.5" height="8" as="geometry" />
        </mxCell>
        <mxCell id="33fXCFxnljWOuSpnzhvU-6" value="- «get/set» locations[]: Location&#xa;- «get/set» routeId: string" style="text;strokeColor=none;fillColor=none;align=left;verticalAlign=top;spacingLeft=4;spacingRight=4;overflow=hidden;rotatable=0;points=[[0,0.5],[1,0.5]];portConstraint=eastwest;" parent="33fXCFxnljWOuSpnzhvU-5" vertex="1">
          <mxGeometry y="34" width="207.5" height="46" as="geometry" />
        </mxCell>
        <mxCell id="iWTWJFSF4S6hdbPV3pCy-81" value="" style="line;strokeWidth=1;fillColor=none;align=left;verticalAlign=middle;spacingTop=-1;spacingLeft=3;spacingRight=3;rotatable=0;labelPosition=right;points=[];portConstraint=eastwest;" parent="33fXCFxnljWOuSpnzhvU-5" vertex="1">
          <mxGeometry y="80" width="207.5" height="8" as="geometry" />
        </mxCell>
        <mxCell id="3VAejhClfT207Y6dodz3-10" value="+ RouteMap(id: string) : RouteMap" style="text;strokeColor=none;fillColor=none;align=left;verticalAlign=top;spacingLeft=4;spacingRight=4;overflow=hidden;rotatable=0;points=[[0,0.5],[1,0.5]];portConstraint=eastwest;" parent="33fXCFxnljWOuSpnzhvU-5" vertex="1">
          <mxGeometry y="88" width="207.5" height="35.25" as="geometry" />
        </mxCell>
        <mxCell id="33fXCFxnljWOuSpnzhvU-9" value="TimeTable&#xa;" style="swimlane;fontStyle=1;align=center;verticalAlign=top;childLayout=stackLayout;horizontal=1;startSize=26;horizontalStack=0;resizeParent=1;resizeParentMax=0;resizeLast=0;collapsible=1;marginBottom=0;fillColor=none;strokeColor=none;" parent="WIyWlLk6GJQsqaUBKTNV-1" vertex="1">
          <mxGeometry x="660" y="492.5" width="205" height="113.25" as="geometry" />
        </mxCell>
        <mxCell id="iWTWJFSF4S6hdbPV3pCy-78" value="" style="line;strokeWidth=1;fillColor=none;align=left;verticalAlign=middle;spacingTop=-1;spacingLeft=3;spacingRight=3;rotatable=0;labelPosition=right;points=[];portConstraint=eastwest;" parent="33fXCFxnljWOuSpnzhvU-9" vertex="1">
          <mxGeometry y="26" width="205" height="8" as="geometry" />
        </mxCell>
        <mxCell id="33fXCFxnljWOuSpnzhvU-10" value="- «get/set» times[]: Time&#xa;- «get/set» routeId: string&#xa;" style="text;strokeColor=none;fillColor=none;align=left;verticalAlign=top;spacingLeft=4;spacingRight=4;overflow=hidden;rotatable=0;points=[[0,0.5],[1,0.5]];portConstraint=eastwest;" parent="33fXCFxnljWOuSpnzhvU-9" vertex="1">
          <mxGeometry y="34" width="205" height="36" as="geometry" />
        </mxCell>
        <mxCell id="iWTWJFSF4S6hdbPV3pCy-79" value="" style="line;strokeWidth=1;fillColor=none;align=left;verticalAlign=middle;spacingTop=-1;spacingLeft=3;spacingRight=3;rotatable=0;labelPosition=right;points=[];portConstraint=eastwest;" parent="33fXCFxnljWOuSpnzhvU-9" vertex="1">
          <mxGeometry y="70" width="205" height="8" as="geometry" />
        </mxCell>
        <mxCell id="3VAejhClfT207Y6dodz3-7" value="+ TimeTable(id : string) : TimeTable" style="text;strokeColor=none;fillColor=none;align=left;verticalAlign=top;spacingLeft=4;spacingRight=4;overflow=hidden;rotatable=0;points=[[0,0.5],[1,0.5]];portConstraint=eastwest;" parent="33fXCFxnljWOuSpnzhvU-9" vertex="1">
          <mxGeometry y="78" width="205" height="35.25" as="geometry" />
        </mxCell>
        <mxCell id="33fXCFxnljWOuSpnzhvU-24" value="Registeration" style="swimlane;fontStyle=1;align=center;verticalAlign=top;childLayout=stackLayout;horizontal=1;startSize=26;horizontalStack=0;resizeParent=1;resizeParentMax=0;resizeLast=0;collapsible=1;marginBottom=0;strokeColor=none;fillColor=none;" parent="WIyWlLk6GJQsqaUBKTNV-1" vertex="1">
          <mxGeometry x="150" y="401" width="180" height="178" as="geometry" />
        </mxCell>
        <mxCell id="iWTWJFSF4S6hdbPV3pCy-87" value="" style="line;strokeWidth=1;fillColor=none;align=left;verticalAlign=middle;spacingTop=-1;spacingLeft=3;spacingRight=3;rotatable=0;labelPosition=right;points=[];portConstraint=eastwest;" parent="33fXCFxnljWOuSpnzhvU-24" vertex="1">
          <mxGeometry y="26" width="180" height="8" as="geometry" />
        </mxCell>
        <mxCell id="33fXCFxnljWOuSpnzhvU-25" value="- «get/set» firstName: string&#xa;- «get/set» lastName: string&#xa;- «get/set» email: string&#xa;- «get/set» password: string&#xa;- «get/set» phone: string&#xa;&#xa;&#xa;&#xa;&#xa;&#xa;" style="text;strokeColor=none;fillColor=none;align=left;verticalAlign=top;spacingLeft=4;spacingRight=4;overflow=hidden;rotatable=0;points=[[0,0.5],[1,0.5]];portConstraint=eastwest;" parent="33fXCFxnljWOuSpnzhvU-24" vertex="1">
          <mxGeometry y="34" width="180" height="84" as="geometry" />
        </mxCell>
        <mxCell id="33fXCFxnljWOuSpnzhvU-26" value="" style="line;strokeWidth=1;fillColor=none;align=left;verticalAlign=middle;spacingTop=-1;spacingLeft=3;spacingRight=3;rotatable=0;labelPosition=right;points=[];portConstraint=eastwest;" parent="33fXCFxnljWOuSpnzhvU-24" vertex="1">
          <mxGeometry y="118" width="180" height="8" as="geometry" />
        </mxCell>
        <mxCell id="33fXCFxnljWOuSpnzhvU-27" value="+ Registeration() : Registration&#xa;+ verifyEmail(): bool&#xa;+ testPassword(): int&#xa;" style="text;strokeColor=none;fillColor=none;align=left;verticalAlign=top;spacingLeft=4;spacingRight=4;overflow=hidden;rotatable=0;points=[[0,0.5],[1,0.5]];portConstraint=eastwest;" parent="33fXCFxnljWOuSpnzhvU-24" vertex="1">
          <mxGeometry y="126" width="180" height="52" as="geometry" />
        </mxCell>
        <mxCell id="33fXCFxnljWOuSpnzhvU-29" value="SmartCard" style="swimlane;fontStyle=1;align=center;verticalAlign=top;childLayout=stackLayout;horizontal=1;startSize=18;horizontalStack=0;resizeParent=1;resizeParentMax=0;resizeLast=0;collapsible=1;marginBottom=0;fillColor=none;strokeColor=none;" parent="WIyWlLk6GJQsqaUBKTNV-1" vertex="1">
          <mxGeometry x="-95" y="711" width="235" height="120" as="geometry" />
        </mxCell>
        <mxCell id="iWTWJFSF4S6hdbPV3pCy-90" value="" style="line;strokeWidth=1;fillColor=none;align=left;verticalAlign=middle;spacingTop=-1;spacingLeft=3;spacingRight=3;rotatable=0;labelPosition=right;points=[];portConstraint=eastwest;" parent="33fXCFxnljWOuSpnzhvU-29" vertex="1">
          <mxGeometry y="18" width="235" height="8" as="geometry" />
        </mxCell>
        <mxCell id="33fXCFxnljWOuSpnzhvU-30" value="- «get/set» id: string&#xa;- «get/set» ownerId: string&#xa;- «get/set» amount: double&#xa;" style="text;strokeColor=none;fillColor=none;align=left;verticalAlign=top;spacingLeft=4;spacingRight=4;overflow=hidden;rotatable=0;points=[[0,0.5],[1,0.5]];portConstraint=eastwest;" parent="33fXCFxnljWOuSpnzhvU-29" vertex="1">
          <mxGeometry y="26" width="235" height="54" as="geometry" />
        </mxCell>
        <mxCell id="33fXCFxnljWOuSpnzhvU-31" value="" style="line;strokeWidth=1;fillColor=none;align=left;verticalAlign=middle;spacingTop=-1;spacingLeft=3;spacingRight=3;rotatable=0;labelPosition=right;points=[];portConstraint=eastwest;" parent="33fXCFxnljWOuSpnzhvU-29" vertex="1">
          <mxGeometry y="80" width="235" height="8" as="geometry" />
        </mxCell>
        <mxCell id="33fXCFxnljWOuSpnzhvU-32" value="+ SmartCard(ownerId: string): SmartCard" style="text;strokeColor=none;fillColor=none;align=left;verticalAlign=top;spacingLeft=4;spacingRight=4;overflow=hidden;rotatable=0;points=[[0,0.5],[1,0.5]];portConstraint=eastwest;" parent="33fXCFxnljWOuSpnzhvU-29" vertex="1">
          <mxGeometry y="88" width="235" height="32" as="geometry" />
        </mxCell>
        <mxCell id="33fXCFxnljWOuSpnzhvU-44" value="" style="edgeStyle=none;html=1;endArrow=open;endSize=12;verticalAlign=bottom;rounded=0;" parent="WIyWlLk6GJQsqaUBKTNV-1" source="oz0YalD53Wy_oq5XSP2Q-50" target="iWTWJFSF4S6hdbPV3pCy-102" edge="1">
          <mxGeometry x="0.1197" y="-7" width="160" relative="1" as="geometry">
            <mxPoint x="385" y="229.5" as="sourcePoint" />
            <mxPoint x="270" y="341.5" as="targetPoint" />
            <mxPoint as="offset" />
            <Array as="points" />
          </mxGeometry>
        </mxCell>
        <mxCell id="33fXCFxnljWOuSpnzhvU-46" value="" style="edgeStyle=none;html=1;endArrow=open;endSize=12;verticalAlign=bottom;rounded=0;entryX=0.5;entryY=0;entryDx=0;entryDy=0;" parent="WIyWlLk6GJQsqaUBKTNV-1" source="oz0YalD53Wy_oq5XSP2Q-55" target="iWTWJFSF4S6hdbPV3pCy-107" edge="1">
          <mxGeometry x="0.1197" y="-7" width="160" relative="1" as="geometry">
            <mxPoint x="26.000000000000227" y="657.0500000000001" as="sourcePoint" />
            <mxPoint x="83" y="681.5" as="targetPoint" />
            <mxPoint as="offset" />
          </mxGeometry>
        </mxCell>
        <mxCell id="33fXCFxnljWOuSpnzhvU-47" value="PaymentSystem" style="swimlane;fontStyle=1;align=center;verticalAlign=top;childLayout=stackLayout;horizontal=1;startSize=26;horizontalStack=0;resizeParent=1;resizeParentMax=0;resizeLast=0;collapsible=1;marginBottom=0;glass=0;strokeColor=none;fillColor=none;" parent="WIyWlLk6GJQsqaUBKTNV-1" vertex="1">
          <mxGeometry x="-15" y="1150" width="265" height="170" as="geometry" />
        </mxCell>
        <mxCell id="iWTWJFSF4S6hdbPV3pCy-92" value="" style="line;strokeWidth=1;fillColor=none;align=left;verticalAlign=middle;spacingTop=-1;spacingLeft=3;spacingRight=3;rotatable=0;labelPosition=right;points=[];portConstraint=eastwest;" parent="33fXCFxnljWOuSpnzhvU-47" vertex="1">
          <mxGeometry y="26" width="265" height="8" as="geometry" />
        </mxCell>
        <mxCell id="33fXCFxnljWOuSpnzhvU-48" value="- «get/set» cardId: string&#xa;- «get/set» userId: string&#xa;- «get/set» userName: string&#xa;- «get/set» creditCardNo: string&#xa;&#xa;" style="text;strokeColor=none;fillColor=none;align=left;verticalAlign=top;spacingLeft=4;spacingRight=4;overflow=hidden;rotatable=0;points=[[0,0.5],[1,0.5]];portConstraint=eastwest;glass=0;" parent="33fXCFxnljWOuSpnzhvU-47" vertex="1">
          <mxGeometry y="34" width="265" height="64" as="geometry" />
        </mxCell>
        <mxCell id="33fXCFxnljWOuSpnzhvU-49" value="" style="line;strokeWidth=1;fillColor=none;align=left;verticalAlign=middle;spacingTop=-1;spacingLeft=3;spacingRight=3;rotatable=0;labelPosition=right;points=[];portConstraint=eastwest;glass=0;" parent="33fXCFxnljWOuSpnzhvU-47" vertex="1">
          <mxGeometry y="98" width="265" height="8" as="geometry" />
        </mxCell>
        <mxCell id="33fXCFxnljWOuSpnzhvU-50" value="+ PaymentSystem(id: string) : PaymentSystem&#xa;+ VerifyPayment(): bool&#xa;+ VerifyCreditCard(): bool&#xa;" style="text;strokeColor=none;fillColor=none;align=left;verticalAlign=top;spacingLeft=4;spacingRight=4;overflow=hidden;rotatable=0;points=[[0,0.5],[1,0.5]];portConstraint=eastwest;glass=0;" parent="33fXCFxnljWOuSpnzhvU-47" vertex="1">
          <mxGeometry y="106" width="265" height="64" as="geometry" />
        </mxCell>
        <mxCell id="tlEVC9gerzhU4MBk52Av-4" value="CardRequest&#xa;" style="swimlane;fontStyle=1;align=center;verticalAlign=top;childLayout=stackLayout;horizontal=1;startSize=18;horizontalStack=0;resizeParent=1;resizeParentMax=0;resizeLast=0;collapsible=1;marginBottom=0;strokeColor=none;fillColor=none;" parent="WIyWlLk6GJQsqaUBKTNV-1" vertex="1">
          <mxGeometry x="-326.5" y="897" width="260" height="153.25" as="geometry" />
        </mxCell>
        <mxCell id="iWTWJFSF4S6hdbPV3pCy-91" value="" style="line;strokeWidth=1;fillColor=none;align=left;verticalAlign=middle;spacingTop=-1;spacingLeft=3;spacingRight=3;rotatable=0;labelPosition=right;points=[];portConstraint=eastwest;" parent="tlEVC9gerzhU4MBk52Av-4" vertex="1">
          <mxGeometry y="18" width="260" height="8" as="geometry" />
        </mxCell>
        <mxCell id="tlEVC9gerzhU4MBk52Av-5" value="- «get/set» userId: string&#xa;- «get/set» userName: string&#xa;- «get/set» creditCardNo: string&#xa;- «get/set» SSN: string&#xa;- «get/set» state: int&#xa;&#xa;&#xa;&#xa;&#xa;" style="text;strokeColor=none;fillColor=none;align=left;verticalAlign=top;spacingLeft=4;spacingRight=4;overflow=hidden;rotatable=0;points=[[0,0.5],[1,0.5]];portConstraint=eastwest;" parent="tlEVC9gerzhU4MBk52Av-4" vertex="1">
          <mxGeometry y="26" width="260" height="84" as="geometry" />
        </mxCell>
        <mxCell id="tlEVC9gerzhU4MBk52Av-6" value="" style="line;strokeWidth=1;fillColor=none;align=left;verticalAlign=middle;spacingTop=-1;spacingLeft=3;spacingRight=3;rotatable=0;labelPosition=right;points=[];portConstraint=eastwest;" parent="tlEVC9gerzhU4MBk52Av-4" vertex="1">
          <mxGeometry y="110" width="260" height="8" as="geometry" />
        </mxCell>
        <mxCell id="3VAejhClfT207Y6dodz3-9" value="+ CardRequest(name: string) : CardRequest" style="text;strokeColor=none;fillColor=none;align=left;verticalAlign=top;spacingLeft=4;spacingRight=4;overflow=hidden;rotatable=0;points=[[0,0.5],[1,0.5]];portConstraint=eastwest;" parent="tlEVC9gerzhU4MBk52Av-4" vertex="1">
          <mxGeometry y="118" width="260" height="35.25" as="geometry" />
        </mxCell>
        <mxCell id="tlEVC9gerzhU4MBk52Av-9" value="" style="edgeStyle=none;html=1;endArrow=open;endSize=12;verticalAlign=bottom;rounded=0;entryX=0.5;entryY=0;entryDx=0;entryDy=0;" parent="WIyWlLk6GJQsqaUBKTNV-1" source="Fl9EUuRl_PvDSLYzTZyR-30" target="iWTWJFSF4S6hdbPV3pCy-108" edge="1">
          <mxGeometry x="0.1197" y="-7" width="160" relative="1" as="geometry">
            <mxPoint x="-170" y="840" as="sourcePoint" />
            <mxPoint x="-46" y="721.5" as="targetPoint" />
            <mxPoint as="offset" />
          </mxGeometry>
        </mxCell>
        <mxCell id="iWTWJFSF4S6hdbPV3pCy-13" value="BasicUserInterface" style="swimlane;fontStyle=1;align=center;verticalAlign=top;childLayout=stackLayout;horizontal=1;startSize=28;horizontalStack=0;resizeParent=1;resizeParentMax=0;resizeLast=0;collapsible=1;marginBottom=0;fillColor=none;strokeColor=none;" parent="WIyWlLk6GJQsqaUBKTNV-1" vertex="1">
          <mxGeometry x="346.99" y="556.5" width="305.01" height="126" as="geometry" />
        </mxCell>
        <mxCell id="iWTWJFSF4S6hdbPV3pCy-44" value="" style="line;strokeWidth=1;fillColor=none;align=left;verticalAlign=middle;spacingTop=-1;spacingLeft=3;spacingRight=3;rotatable=0;labelPosition=right;points=[];portConstraint=eastwest;" parent="iWTWJFSF4S6hdbPV3pCy-13" vertex="1">
          <mxGeometry y="28" width="305.01" height="8" as="geometry" />
        </mxCell>
        <mxCell id="iWTWJFSF4S6hdbPV3pCy-14" value="- «get/set» userName: string" style="text;strokeColor=none;fillColor=none;align=left;verticalAlign=top;spacingLeft=4;spacingRight=4;overflow=hidden;rotatable=0;points=[[0,0.5],[1,0.5]];portConstraint=eastwest;" parent="iWTWJFSF4S6hdbPV3pCy-13" vertex="1">
          <mxGeometry y="36" width="305.01" height="26" as="geometry" />
        </mxCell>
        <mxCell id="iWTWJFSF4S6hdbPV3pCy-15" value="" style="line;strokeWidth=1;fillColor=none;align=left;verticalAlign=middle;spacingTop=-1;spacingLeft=3;spacingRight=3;rotatable=0;labelPosition=right;points=[];portConstraint=eastwest;" parent="iWTWJFSF4S6hdbPV3pCy-13" vertex="1">
          <mxGeometry y="62" width="305.01" height="8" as="geometry" />
        </mxCell>
        <mxCell id="iWTWJFSF4S6hdbPV3pCy-16" value="+ BasicUserInterface(name: string) : BasicUserInterface&#xa;+ viewTimeTablePage(route: Route) : void&#xa;+ viewRouteMapPage(): void&#xa;+ viewFareDetailsPage(): void&#xa;&#xa;&#xa;&#xa;" style="text;strokeColor=none;fillColor=none;align=left;verticalAlign=top;spacingLeft=4;spacingRight=4;overflow=hidden;rotatable=0;points=[[0,0.5],[1,0.5]];portConstraint=eastwest;" parent="iWTWJFSF4S6hdbPV3pCy-13" vertex="1">
          <mxGeometry y="70" width="305.01" height="56" as="geometry" />
        </mxCell>
        <mxCell id="iWTWJFSF4S6hdbPV3pCy-19" value="" style="ellipse;shape=umlEntity;whiteSpace=wrap;html=1;" parent="WIyWlLk6GJQsqaUBKTNV-1" vertex="1">
          <mxGeometry x="304.99" y="-230" width="50" height="50" as="geometry" />
        </mxCell>
        <mxCell id="iWTWJFSF4S6hdbPV3pCy-30" value="" style="ellipse;shape=umlControl;whiteSpace=wrap;html=1;strokeColor=default;fillColor=none;" parent="WIyWlLk6GJQsqaUBKTNV-1" vertex="1">
          <mxGeometry x="754" y="-18.5" width="52.5" height="60" as="geometry" />
        </mxCell>
        <mxCell id="iWTWJFSF4S6hdbPV3pCy-33" value="" style="ellipse;shape=umlEntity;whiteSpace=wrap;html=1;" parent="WIyWlLk6GJQsqaUBKTNV-1" vertex="1">
          <mxGeometry x="450" y="-18.5" width="50" height="50" as="geometry" />
        </mxCell>
        <mxCell id="iWTWJFSF4S6hdbPV3pCy-35" value="" style="shape=umlBoundary;whiteSpace=wrap;html=1;" parent="WIyWlLk6GJQsqaUBKTNV-1" vertex="1">
          <mxGeometry x="1001.5" y="-11.75" width="60" height="51.5" as="geometry" />
        </mxCell>
        <mxCell id="iWTWJFSF4S6hdbPV3pCy-37" value="" style="edgeStyle=none;html=1;endArrow=open;endSize=12;verticalAlign=bottom;rounded=0;exitX=0.01;exitY=0.512;exitDx=0;exitDy=0;exitPerimeter=0;" parent="WIyWlLk6GJQsqaUBKTNV-1" source="iWTWJFSF4S6hdbPV3pCy-35" target="iWTWJFSF4S6hdbPV3pCy-30" edge="1">
          <mxGeometry x="0.1197" y="-7" width="160" relative="1" as="geometry">
            <mxPoint x="1200" y="-50" as="sourcePoint" />
            <mxPoint x="1230" y="-14.5" as="targetPoint" />
            <mxPoint as="offset" />
          </mxGeometry>
        </mxCell>
        <mxCell id="iWTWJFSF4S6hdbPV3pCy-38" value="AdminInterface" style="swimlane;fontStyle=1;align=center;verticalAlign=top;childLayout=stackLayout;horizontal=1;startSize=26;horizontalStack=0;resizeParent=1;resizeParentMax=0;resizeLast=0;collapsible=1;marginBottom=0;strokeColor=none;fillColor=none;" parent="WIyWlLk6GJQsqaUBKTNV-1" vertex="1">
          <mxGeometry x="966" y="41.5" width="314" height="150" as="geometry" />
        </mxCell>
        <mxCell id="iWTWJFSF4S6hdbPV3pCy-40" value="" style="line;strokeWidth=1;fillColor=none;align=left;verticalAlign=middle;spacingTop=-1;spacingLeft=3;spacingRight=3;rotatable=0;labelPosition=right;points=[];portConstraint=eastwest;" parent="iWTWJFSF4S6hdbPV3pCy-38" vertex="1">
          <mxGeometry y="26" width="314" height="8" as="geometry" />
        </mxCell>
        <mxCell id="iWTWJFSF4S6hdbPV3pCy-39" value="- «get/set» adminId: string" style="text;strokeColor=none;fillColor=none;align=left;verticalAlign=top;spacingLeft=4;spacingRight=4;overflow=hidden;rotatable=0;points=[[0,0.5],[1,0.5]];portConstraint=eastwest;" parent="iWTWJFSF4S6hdbPV3pCy-38" vertex="1">
          <mxGeometry y="34" width="314" height="26" as="geometry" />
        </mxCell>
        <mxCell id="iWTWJFSF4S6hdbPV3pCy-42" value="" style="line;strokeWidth=1;fillColor=none;align=left;verticalAlign=middle;spacingTop=-1;spacingLeft=3;spacingRight=3;rotatable=0;labelPosition=right;points=[];portConstraint=eastwest;" parent="iWTWJFSF4S6hdbPV3pCy-38" vertex="1">
          <mxGeometry y="60" width="314" height="8" as="geometry" />
        </mxCell>
        <mxCell id="iWTWJFSF4S6hdbPV3pCy-41" value="+ AdminInterface(adminId: string) : AdminInterface&#xa;+ viewAddRoutePage(): void&#xa;+ viewAddStationPage(): void&#xa;+ viewAddTrainPage(): void&#xa;+ viewUpdateFarePage(): void&#xa;" style="text;strokeColor=none;fillColor=none;align=left;verticalAlign=top;spacingLeft=4;spacingRight=4;overflow=hidden;rotatable=0;points=[[0,0.5],[1,0.5]];portConstraint=eastwest;" parent="iWTWJFSF4S6hdbPV3pCy-38" vertex="1">
          <mxGeometry y="68" width="314" height="82" as="geometry" />
        </mxCell>
        <mxCell id="iWTWJFSF4S6hdbPV3pCy-45" value="" style="shape=umlBoundary;whiteSpace=wrap;html=1;" parent="WIyWlLk6GJQsqaUBKTNV-1" vertex="1">
          <mxGeometry x="455" y="505" width="60" height="51.5" as="geometry" />
        </mxCell>
        <mxCell id="iWTWJFSF4S6hdbPV3pCy-46" value="BasicUserControler" style="swimlane;fontStyle=1;align=center;verticalAlign=top;childLayout=stackLayout;horizontal=1;startSize=26;horizontalStack=0;resizeParent=1;resizeParentMax=0;resizeLast=0;collapsible=1;marginBottom=0;strokeColor=none;fillColor=none;" parent="WIyWlLk6GJQsqaUBKTNV-1" vertex="1">
          <mxGeometry x="349.99" y="293" width="310" height="160" as="geometry" />
        </mxCell>
        <mxCell id="iWTWJFSF4S6hdbPV3pCy-50" value="" style="line;strokeWidth=1;fillColor=none;align=left;verticalAlign=middle;spacingTop=-1;spacingLeft=3;spacingRight=3;rotatable=0;labelPosition=right;points=[];portConstraint=eastwest;" parent="iWTWJFSF4S6hdbPV3pCy-46" vertex="1">
          <mxGeometry y="26" width="310" height="8" as="geometry" />
        </mxCell>
        <mxCell id="iWTWJFSF4S6hdbPV3pCy-47" value="- «get/set» userName: string" style="text;strokeColor=none;fillColor=none;align=left;verticalAlign=top;spacingLeft=4;spacingRight=4;overflow=hidden;rotatable=0;points=[[0,0.5],[1,0.5]];portConstraint=eastwest;" parent="iWTWJFSF4S6hdbPV3pCy-46" vertex="1">
          <mxGeometry y="34" width="310" height="26" as="geometry" />
        </mxCell>
        <mxCell id="iWTWJFSF4S6hdbPV3pCy-48" value="" style="line;strokeWidth=1;fillColor=none;align=left;verticalAlign=middle;spacingTop=-1;spacingLeft=3;spacingRight=3;rotatable=0;labelPosition=right;points=[];portConstraint=eastwest;" parent="iWTWJFSF4S6hdbPV3pCy-46" vertex="1">
          <mxGeometry y="60" width="310" height="8" as="geometry" />
        </mxCell>
        <mxCell id="iWTWJFSF4S6hdbPV3pCy-49" value="+ BasicUserControler(name: string) : BasicUserControler&#xa;+ generateTimeTable(routeId: string): void&#xa;+ generateFareDetailsPage(): void&#xa;+ generateRouteMap(routeId: string): RouteMap&#xa;+ getInterval(string routeId): time" style="text;strokeColor=none;fillColor=none;align=left;verticalAlign=top;spacingLeft=4;spacingRight=4;overflow=hidden;rotatable=0;points=[[0,0.5],[1,0.5]];portConstraint=eastwest;" parent="iWTWJFSF4S6hdbPV3pCy-46" vertex="1">
          <mxGeometry y="68" width="310" height="92" as="geometry" />
        </mxCell>
        <mxCell id="iWTWJFSF4S6hdbPV3pCy-53" value="" style="edgeStyle=none;html=1;endArrow=open;endSize=12;verticalAlign=bottom;rounded=0;exitX=1;exitY=0.5;exitDx=0;exitDy=0;" parent="WIyWlLk6GJQsqaUBKTNV-1" source="wLO17Js8CSukOj2f2Co--9" target="iWTWJFSF4S6hdbPV3pCy-64" edge="1">
          <mxGeometry x="0.1539" width="160" relative="1" as="geometry">
            <mxPoint x="1160" y="230" as="sourcePoint" />
            <mxPoint x="1210" y="290" as="targetPoint" />
            <mxPoint as="offset" />
          </mxGeometry>
        </mxCell>
        <mxCell id="iWTWJFSF4S6hdbPV3pCy-63" value="" style="edgeStyle=none;html=1;endArrow=open;endSize=12;verticalAlign=bottom;rounded=0;entryX=0.5;entryY=0;entryDx=0;entryDy=0;" parent="WIyWlLk6GJQsqaUBKTNV-1" source="wLO17Js8CSukOj2f2Co--9" target="iWTWJFSF4S6hdbPV3pCy-65" edge="1">
          <mxGeometry x="-0.2131" y="7" width="160" relative="1" as="geometry">
            <mxPoint x="710" y="236.49671052631584" as="sourcePoint" />
            <mxPoint x="880" y="324" as="targetPoint" />
            <mxPoint as="offset" />
          </mxGeometry>
        </mxCell>
        <mxCell id="iWTWJFSF4S6hdbPV3pCy-64" value="" style="ellipse;shape=umlEntity;whiteSpace=wrap;html=1;" parent="WIyWlLk6GJQsqaUBKTNV-1" vertex="1">
          <mxGeometry x="1141" y="292" width="50" height="50" as="geometry" />
        </mxCell>
        <mxCell id="iWTWJFSF4S6hdbPV3pCy-65" value="" style="ellipse;shape=umlEntity;whiteSpace=wrap;html=1;" parent="WIyWlLk6GJQsqaUBKTNV-1" vertex="1">
          <mxGeometry x="951.5" y="293" width="50" height="50" as="geometry" />
        </mxCell>
        <mxCell id="iWTWJFSF4S6hdbPV3pCy-69" value="" style="edgeStyle=none;html=1;endArrow=open;endSize=12;verticalAlign=bottom;rounded=0;exitX=0.345;exitY=1;exitDx=0;exitDy=0;exitPerimeter=0;" parent="WIyWlLk6GJQsqaUBKTNV-1" source="wLO17Js8CSukOj2f2Co--9" target="iWTWJFSF4S6hdbPV3pCy-70" edge="1">
          <mxGeometry x="-0.1433" y="6" width="160" relative="1" as="geometry">
            <mxPoint x="800.9991596638657" y="190" as="sourcePoint" />
            <mxPoint x="826.1" y="290" as="targetPoint" />
            <mxPoint as="offset" />
          </mxGeometry>
        </mxCell>
        <mxCell id="iWTWJFSF4S6hdbPV3pCy-70" value="" style="ellipse;shape=umlEntity;whiteSpace=wrap;html=1;" parent="WIyWlLk6GJQsqaUBKTNV-1" vertex="1">
          <mxGeometry x="726.4999999999999" y="279.5" width="50" height="50" as="geometry" />
        </mxCell>
        <mxCell id="iWTWJFSF4S6hdbPV3pCy-74" value="" style="ellipse;shape=umlEntity;whiteSpace=wrap;html=1;" parent="WIyWlLk6GJQsqaUBKTNV-1" vertex="1">
          <mxGeometry x="200" y="-37.870000000000005" width="50" height="50" as="geometry" />
        </mxCell>
        <mxCell id="iWTWJFSF4S6hdbPV3pCy-76" value="" style="edgeStyle=none;html=1;endArrow=open;endSize=12;verticalAlign=bottom;rounded=0;entryX=0.783;entryY=1.056;entryDx=0;entryDy=0;exitX=0.334;exitY=0.158;exitDx=0;exitDy=0;exitPerimeter=0;entryPerimeter=0;" parent="WIyWlLk6GJQsqaUBKTNV-1" source="iWTWJFSF4S6hdbPV3pCy-77" target="oz0YalD53Wy_oq5XSP2Q-21" edge="1">
          <mxGeometry x="0.1197" y="-7" width="160" relative="1" as="geometry">
            <mxPoint x="497.75" y="190" as="sourcePoint" />
            <mxPoint x="360" y="230" as="targetPoint" />
            <mxPoint as="offset" />
          </mxGeometry>
        </mxCell>
        <mxCell id="iWTWJFSF4S6hdbPV3pCy-77" value="" style="ellipse;shape=umlControl;whiteSpace=wrap;html=1;strokeColor=default;fillColor=none;" parent="WIyWlLk6GJQsqaUBKTNV-1" vertex="1">
          <mxGeometry x="390" y="238" width="52.5" height="60" as="geometry" />
        </mxCell>
        <mxCell id="iWTWJFSF4S6hdbPV3pCy-100" value="" style="ellipse;shape=umlEntity;whiteSpace=wrap;html=1;" parent="WIyWlLk6GJQsqaUBKTNV-1" vertex="1">
          <mxGeometry x="214" y="171.5" width="50" height="50" as="geometry" />
        </mxCell>
        <mxCell id="iWTWJFSF4S6hdbPV3pCy-101" value="" style="ellipse;shape=umlEntity;whiteSpace=wrap;html=1;" parent="WIyWlLk6GJQsqaUBKTNV-1" vertex="1">
          <mxGeometry x="-19" y="193" width="50" height="50" as="geometry" />
        </mxCell>
        <mxCell id="iWTWJFSF4S6hdbPV3pCy-102" value="" style="ellipse;shape=umlEntity;whiteSpace=wrap;html=1;" parent="WIyWlLk6GJQsqaUBKTNV-1" vertex="1">
          <mxGeometry x="200" y="338" width="50" height="50" as="geometry" />
        </mxCell>
        <mxCell id="iWTWJFSF4S6hdbPV3pCy-104" value="" style="ellipse;shape=umlEntity;whiteSpace=wrap;html=1;" parent="WIyWlLk6GJQsqaUBKTNV-1" vertex="1">
          <mxGeometry x="40" y="520.5" width="50" height="50" as="geometry" />
        </mxCell>
        <mxCell id="iWTWJFSF4S6hdbPV3pCy-105" value="" style="edgeStyle=none;html=1;endSize=12;endArrow=block;endFill=0;rounded=0;exitX=0.903;exitY=0.251;exitDx=0;exitDy=0;exitPerimeter=0;" parent="WIyWlLk6GJQsqaUBKTNV-1" source="iWTWJFSF4S6hdbPV3pCy-106" target="oz0YalD53Wy_oq5XSP2Q-52" edge="1">
          <mxGeometry width="160" relative="1" as="geometry">
            <mxPoint x="-243.58000000000004" y="393.5" as="sourcePoint" />
            <mxPoint x="-150.0037288135594" y="415.5" as="targetPoint" />
          </mxGeometry>
        </mxCell>
        <mxCell id="iWTWJFSF4S6hdbPV3pCy-106" value="" style="ellipse;shape=umlEntity;whiteSpace=wrap;html=1;" parent="WIyWlLk6GJQsqaUBKTNV-1" vertex="1">
          <mxGeometry x="-95.00000000000006" y="445.25" width="50" height="50" as="geometry" />
        </mxCell>
        <mxCell id="iWTWJFSF4S6hdbPV3pCy-107" value="" style="ellipse;shape=umlEntity;whiteSpace=wrap;html=1;" parent="WIyWlLk6GJQsqaUBKTNV-1" vertex="1">
          <mxGeometry x="62.5" y="670" width="50" height="50" as="geometry" />
        </mxCell>
        <mxCell id="iWTWJFSF4S6hdbPV3pCy-108" value="" style="ellipse;shape=umlEntity;whiteSpace=wrap;html=1;" parent="WIyWlLk6GJQsqaUBKTNV-1" vertex="1">
          <mxGeometry x="-224" y="837" width="50" height="50" as="geometry" />
        </mxCell>
        <mxCell id="iWTWJFSF4S6hdbPV3pCy-109" value="RegularUserInterface" style="swimlane;fontStyle=1;align=center;verticalAlign=top;childLayout=stackLayout;horizontal=1;startSize=28;horizontalStack=0;resizeParent=1;resizeParentMax=0;resizeLast=0;collapsible=1;marginBottom=0;fillColor=none;strokeColor=none;" parent="WIyWlLk6GJQsqaUBKTNV-1" vertex="1">
          <mxGeometry x="-590" y="546.5" width="320" height="100" as="geometry" />
        </mxCell>
        <mxCell id="iWTWJFSF4S6hdbPV3pCy-110" value="" style="line;strokeWidth=1;fillColor=none;align=left;verticalAlign=middle;spacingTop=-1;spacingLeft=3;spacingRight=3;rotatable=0;labelPosition=right;points=[];portConstraint=eastwest;" parent="iWTWJFSF4S6hdbPV3pCy-109" vertex="1">
          <mxGeometry y="28" width="320" height="8" as="geometry" />
        </mxCell>
        <mxCell id="iWTWJFSF4S6hdbPV3pCy-111" value="- «get/set» userId: string" style="text;strokeColor=none;fillColor=none;align=left;verticalAlign=top;spacingLeft=4;spacingRight=4;overflow=hidden;rotatable=0;points=[[0,0.5],[1,0.5]];portConstraint=eastwest;" parent="iWTWJFSF4S6hdbPV3pCy-109" vertex="1">
          <mxGeometry y="36" width="320" height="26" as="geometry" />
        </mxCell>
        <mxCell id="iWTWJFSF4S6hdbPV3pCy-112" value="" style="line;strokeWidth=1;fillColor=none;align=left;verticalAlign=middle;spacingTop=-1;spacingLeft=3;spacingRight=3;rotatable=0;labelPosition=right;points=[];portConstraint=eastwest;" parent="iWTWJFSF4S6hdbPV3pCy-109" vertex="1">
          <mxGeometry y="62" width="320" height="8" as="geometry" />
        </mxCell>
        <mxCell id="iWTWJFSF4S6hdbPV3pCy-113" value="+ RegularUSerInterface(id: string): RegualrUserInterface&#xa;+ viewRequestCardPage(route: Route) : void&#xa;&#xa;&#xa;&#xa;" style="text;strokeColor=none;fillColor=none;align=left;verticalAlign=top;spacingLeft=4;spacingRight=4;overflow=hidden;rotatable=0;points=[[0,0.5],[1,0.5]];portConstraint=eastwest;" parent="iWTWJFSF4S6hdbPV3pCy-109" vertex="1">
          <mxGeometry y="70" width="320" height="30" as="geometry" />
        </mxCell>
        <mxCell id="Xz_mgDwDdjF8GATbOrgD-78" value="" style="endArrow=none;html=1;rounded=0;dashed=1;dashPattern=1 2;strokeColor=none;entryX=0;entryY=0;entryDx=0;entryDy=0;" parent="iWTWJFSF4S6hdbPV3pCy-109" edge="1">
          <mxGeometry relative="1" as="geometry">
            <mxPoint x="116.92509865033344" y="111.5" as="sourcePoint" />
            <mxPoint x="92.32233047033628" y="144.82233047033606" as="targetPoint" />
          </mxGeometry>
        </mxCell>
        <mxCell id="Xz_mgDwDdjF8GATbOrgD-79" value="1" style="resizable=0;html=1;align=left;verticalAlign=bottom;fontStyle=1;direction=south;" parent="Xz_mgDwDdjF8GATbOrgD-78" connectable="0" vertex="1">
          <mxGeometry x="-1" relative="1" as="geometry">
            <mxPoint x="193" y="-91" as="offset" />
          </mxGeometry>
        </mxCell>
        <mxCell id="Xz_mgDwDdjF8GATbOrgD-80" value="0..*" style="resizable=0;html=1;align=right;verticalAlign=bottom;fontStyle=1" parent="Xz_mgDwDdjF8GATbOrgD-78" connectable="0" vertex="1">
          <mxGeometry x="1" relative="1" as="geometry">
            <mxPoint x="318" y="145" as="offset" />
          </mxGeometry>
        </mxCell>
        <mxCell id="iWTWJFSF4S6hdbPV3pCy-114" value="" style="shape=umlBoundary;whiteSpace=wrap;html=1;" parent="WIyWlLk6GJQsqaUBKTNV-1" vertex="1">
          <mxGeometry x="-320.5" y="505" width="60" height="51.5" as="geometry" />
        </mxCell>
        <mxCell id="iWTWJFSF4S6hdbPV3pCy-115" value="" style="edgeStyle=none;html=1;endArrow=open;endSize=12;verticalAlign=bottom;rounded=0;exitX=0.917;exitY=0.849;exitDx=0;exitDy=0;exitPerimeter=0;" parent="WIyWlLk6GJQsqaUBKTNV-1" source="iWTWJFSF4S6hdbPV3pCy-114" target="Fl9EUuRl_PvDSLYzTZyR-25" edge="1">
          <mxGeometry x="0.1197" y="-7" width="160" relative="1" as="geometry">
            <mxPoint x="-90" y="630" as="sourcePoint" />
            <mxPoint x="-270" y="580" as="targetPoint" />
            <mxPoint as="offset" />
          </mxGeometry>
        </mxCell>
        <mxCell id="iWTWJFSF4S6hdbPV3pCy-116" value="Ticket" style="swimlane;fontStyle=1;align=center;verticalAlign=top;childLayout=stackLayout;horizontal=1;startSize=26;horizontalStack=0;resizeParent=1;resizeParentMax=0;resizeLast=0;collapsible=1;marginBottom=0;strokeColor=none;fillColor=none;" parent="WIyWlLk6GJQsqaUBKTNV-1" vertex="1">
          <mxGeometry x="-321.75" y="351.38" width="201.75" height="133.25" as="geometry" />
        </mxCell>
        <mxCell id="iWTWJFSF4S6hdbPV3pCy-120" value="" style="line;strokeWidth=1;fillColor=none;align=left;verticalAlign=middle;spacingTop=-1;spacingLeft=3;spacingRight=3;rotatable=0;labelPosition=right;points=[];portConstraint=eastwest;" parent="iWTWJFSF4S6hdbPV3pCy-116" vertex="1">
          <mxGeometry y="26" width="201.75" height="8" as="geometry" />
        </mxCell>
        <mxCell id="iWTWJFSF4S6hdbPV3pCy-117" value="- «get/set» number: string&#xa;- «get/set» date: Date&#xa;- «get/set» routeId: string&#xa;&#xa;" style="text;strokeColor=none;fillColor=none;align=left;verticalAlign=top;spacingLeft=4;spacingRight=4;overflow=hidden;rotatable=0;points=[[0,0.5],[1,0.5]];portConstraint=eastwest;" parent="iWTWJFSF4S6hdbPV3pCy-116" vertex="1">
          <mxGeometry y="34" width="201.75" height="56" as="geometry" />
        </mxCell>
        <mxCell id="iWTWJFSF4S6hdbPV3pCy-118" value="" style="line;strokeWidth=1;fillColor=none;align=left;verticalAlign=middle;spacingTop=-1;spacingLeft=3;spacingRight=3;rotatable=0;labelPosition=right;points=[];portConstraint=eastwest;" parent="iWTWJFSF4S6hdbPV3pCy-116" vertex="1">
          <mxGeometry y="90" width="201.75" height="8" as="geometry" />
        </mxCell>
        <mxCell id="oKMgDRfPAerwbWezPVLL-4" value="+ Ticket(number: string) : Ticket" style="text;strokeColor=none;fillColor=none;align=left;verticalAlign=top;spacingLeft=4;spacingRight=4;overflow=hidden;rotatable=0;points=[[0,0.5],[1,0.5]];portConstraint=eastwest;" vertex="1" parent="iWTWJFSF4S6hdbPV3pCy-116">
          <mxGeometry y="98" width="201.75" height="35.25" as="geometry" />
        </mxCell>
        <mxCell id="iWTWJFSF4S6hdbPV3pCy-122" value="" style="edgeStyle=none;html=1;endArrow=open;endSize=12;verticalAlign=bottom;rounded=0;entryX=0;entryY=0;entryDx=0;entryDy=0;" parent="WIyWlLk6GJQsqaUBKTNV-1" source="oKMgDRfPAerwbWezPVLL-5" target="iWTWJFSF4S6hdbPV3pCy-124" edge="1">
          <mxGeometry x="0.1197" y="-7" width="160" relative="1" as="geometry">
            <mxPoint x="221.37735849056617" y="315.5" as="sourcePoint" />
            <mxPoint x="237" y="351.4999999999998" as="targetPoint" />
            <mxPoint as="offset" />
            <Array as="points" />
          </mxGeometry>
        </mxCell>
        <mxCell id="iWTWJFSF4S6hdbPV3pCy-123" value="" style="shape=umlBoundary;whiteSpace=wrap;html=1;" parent="WIyWlLk6GJQsqaUBKTNV-1" vertex="1">
          <mxGeometry x="115" y="1084" width="60" height="51.5" as="geometry" />
        </mxCell>
        <mxCell id="iWTWJFSF4S6hdbPV3pCy-124" value="" style="ellipse;shape=umlEntity;whiteSpace=wrap;html=1;" parent="WIyWlLk6GJQsqaUBKTNV-1" vertex="1">
          <mxGeometry x="-240" y="302" width="50" height="50" as="geometry" />
        </mxCell>
        <mxCell id="iWTWJFSF4S6hdbPV3pCy-127" value="" style="edgeStyle=none;html=1;endArrow=open;endSize=12;verticalAlign=bottom;rounded=0;entryX=0.04;entryY=0.344;entryDx=0;entryDy=0;entryPerimeter=0;" parent="WIyWlLk6GJQsqaUBKTNV-1" source="iWTWJFSF4S6hdbPV3pCy-49" target="iWTWJFSF4S6hdbPV3pCy-129" edge="1">
          <mxGeometry x="0.1197" y="-7" width="160" relative="1" as="geometry">
            <mxPoint x="346.2023335545234" y="429.5" as="sourcePoint" />
            <mxPoint x="349.44000000000005" y="491.9200000000001" as="targetPoint" />
            <mxPoint as="offset" />
          </mxGeometry>
        </mxCell>
        <mxCell id="iWTWJFSF4S6hdbPV3pCy-128" value="" style="edgeStyle=none;html=1;endArrow=open;endSize=12;verticalAlign=bottom;rounded=0;entryX=0.01;entryY=0.444;entryDx=0;entryDy=0;entryPerimeter=0;" parent="WIyWlLk6GJQsqaUBKTNV-1" source="iWTWJFSF4S6hdbPV3pCy-49" target="iWTWJFSF4S6hdbPV3pCy-130" edge="1">
          <mxGeometry x="0.1197" y="-7" width="160" relative="1" as="geometry">
            <mxPoint x="580" y="410" as="sourcePoint" />
            <mxPoint x="359.44000000000005" y="501.9200000000001" as="targetPoint" />
            <mxPoint as="offset" />
          </mxGeometry>
        </mxCell>
        <mxCell id="iWTWJFSF4S6hdbPV3pCy-129" value="" style="ellipse;shape=umlEntity;whiteSpace=wrap;html=1;" parent="WIyWlLk6GJQsqaUBKTNV-1" vertex="1">
          <mxGeometry x="722.4999999999999" y="646.5" width="50" height="50" as="geometry" />
        </mxCell>
        <mxCell id="iWTWJFSF4S6hdbPV3pCy-130" value="" style="ellipse;shape=umlEntity;whiteSpace=wrap;html=1;" parent="WIyWlLk6GJQsqaUBKTNV-1" vertex="1">
          <mxGeometry x="737.4999999999999" y="442.5" width="50" height="50" as="geometry" />
        </mxCell>
        <mxCell id="iWTWJFSF4S6hdbPV3pCy-131" value="" style="edgeStyle=none;html=1;endArrow=open;endSize=12;verticalAlign=bottom;rounded=0;exitX=0;exitY=0.5;exitDx=0;exitDy=0;" parent="WIyWlLk6GJQsqaUBKTNV-1" source="iWTWJFSF4S6hdbPV3pCy-65" target="iWTWJFSF4S6hdbPV3pCy-70" edge="1">
          <mxGeometry x="0.1197" y="-7" width="160" relative="1" as="geometry">
            <mxPoint x="844.9973584905661" y="406.5" as="sourcePoint" />
            <mxPoint x="860.6199999999999" y="442.5" as="targetPoint" />
            <mxPoint as="offset" />
            <Array as="points" />
          </mxGeometry>
        </mxCell>
        <mxCell id="iWTWJFSF4S6hdbPV3pCy-132" value="" style="edgeStyle=none;html=1;endArrow=open;endSize=12;verticalAlign=bottom;rounded=0;exitX=0;exitY=0.687;exitDx=0;exitDy=0;exitPerimeter=0;entryX=0.992;entryY=0.444;entryDx=0;entryDy=0;entryPerimeter=0;" parent="WIyWlLk6GJQsqaUBKTNV-1" source="wLO17Js8CSukOj2f2Co--1" target="iWTWJFSF4S6hdbPV3pCy-130" edge="1">
          <mxGeometry x="0.1197" y="-7" width="160" relative="1" as="geometry">
            <mxPoint x="884.5950000000003" y="403.05600000000015" as="sourcePoint" />
            <mxPoint x="817.1425405758146" y="338.30510703729374" as="targetPoint" />
            <mxPoint as="offset" />
            <Array as="points" />
          </mxGeometry>
        </mxCell>
        <mxCell id="iWTWJFSF4S6hdbPV3pCy-133" value="" style="edgeStyle=none;html=1;endArrow=open;endSize=12;verticalAlign=bottom;rounded=0;entryX=1;entryY=0.25;entryDx=0;entryDy=0;" parent="WIyWlLk6GJQsqaUBKTNV-1" source="wLO17Js8CSukOj2f2Co--0" target="33fXCFxnljWOuSpnzhvU-5" edge="1">
          <mxGeometry x="0.1197" y="-7" width="160" relative="1" as="geometry">
            <mxPoint x="943.6072772898369" y="492" as="sourcePoint" />
            <mxPoint x="890" y="660" as="targetPoint" />
            <mxPoint as="offset" />
            <Array as="points" />
          </mxGeometry>
        </mxCell>
        <mxCell id="iWTWJFSF4S6hdbPV3pCy-134" value="" style="edgeStyle=none;html=1;endArrow=open;endSize=12;verticalAlign=bottom;rounded=0;" parent="WIyWlLk6GJQsqaUBKTNV-1" source="iWTWJFSF4S6hdbPV3pCy-45" target="iWTWJFSF4S6hdbPV3pCy-49" edge="1">
          <mxGeometry x="0.1197" y="-7" width="160" relative="1" as="geometry">
            <mxPoint x="276.23508536872396" y="146" as="sourcePoint" />
            <mxPoint x="414.1199999999999" y="263.693" as="targetPoint" />
            <mxPoint as="offset" />
          </mxGeometry>
        </mxCell>
        <mxCell id="Xz_mgDwDdjF8GATbOrgD-0" value="" style="endArrow=none;html=1;rounded=0;dashed=1;dashPattern=1 2;exitX=1;exitY=0.37;exitDx=0;exitDy=0;exitPerimeter=0;strokeColor=none;" parent="WIyWlLk6GJQsqaUBKTNV-1" source="iWTWJFSF4S6hdbPV3pCy-33" edge="1">
          <mxGeometry relative="1" as="geometry">
            <mxPoint x="540" as="sourcePoint" />
            <mxPoint x="720" as="targetPoint" />
          </mxGeometry>
        </mxCell>
        <mxCell id="Xz_mgDwDdjF8GATbOrgD-1" value="1" style="resizable=0;html=1;align=left;verticalAlign=bottom;fontStyle=1" parent="Xz_mgDwDdjF8GATbOrgD-0" connectable="0" vertex="1">
          <mxGeometry x="-1" relative="1" as="geometry" />
        </mxCell>
        <mxCell id="Xz_mgDwDdjF8GATbOrgD-2" value="0..*" style="resizable=0;html=1;align=right;verticalAlign=bottom;fontStyle=1" parent="Xz_mgDwDdjF8GATbOrgD-0" connectable="0" vertex="1">
          <mxGeometry x="1" relative="1" as="geometry">
            <mxPoint x="36" y="7" as="offset" />
          </mxGeometry>
        </mxCell>
        <mxCell id="Xz_mgDwDdjF8GATbOrgD-4" value="" style="endArrow=none;html=1;rounded=0;dashed=1;dashPattern=1 2;strokeColor=none;entryX=0.042;entryY=0.373;entryDx=0;entryDy=0;entryPerimeter=0;exitX=0.96;exitY=0.351;exitDx=0;exitDy=0;exitPerimeter=0;" parent="WIyWlLk6GJQsqaUBKTNV-1" source="iWTWJFSF4S6hdbPV3pCy-35" target="iWTWJFSF4S6hdbPV3pCy-30" edge="1">
          <mxGeometry relative="1" as="geometry">
            <mxPoint x="780" as="sourcePoint" />
            <mxPoint x="1000" as="targetPoint" />
          </mxGeometry>
        </mxCell>
        <mxCell id="Xz_mgDwDdjF8GATbOrgD-5" value="1" style="resizable=0;html=1;align=left;verticalAlign=bottom;fontStyle=1" parent="Xz_mgDwDdjF8GATbOrgD-4" connectable="0" vertex="1">
          <mxGeometry x="-1" relative="1" as="geometry">
            <mxPoint x="-70" y="3" as="offset" />
          </mxGeometry>
        </mxCell>
        <mxCell id="Xz_mgDwDdjF8GATbOrgD-6" value="1" style="resizable=0;html=1;align=right;verticalAlign=bottom;fontStyle=1" parent="Xz_mgDwDdjF8GATbOrgD-4" connectable="0" vertex="1">
          <mxGeometry x="1" relative="1" as="geometry">
            <mxPoint x="64" as="offset" />
          </mxGeometry>
        </mxCell>
        <mxCell id="Xz_mgDwDdjF8GATbOrgD-8" value="" style="endArrow=none;html=1;rounded=0;dashed=1;dashPattern=1 2;strokeColor=default;exitX=1;exitY=0.5;exitDx=0;exitDy=0;" parent="WIyWlLk6GJQsqaUBKTNV-1" source="wLO17Js8CSukOj2f2Co--9" target="iWTWJFSF4S6hdbPV3pCy-64" edge="1">
          <mxGeometry relative="1" as="geometry">
            <mxPoint x="1240" y="180" as="sourcePoint" />
            <mxPoint x="1400" y="180" as="targetPoint" />
          </mxGeometry>
        </mxCell>
        <mxCell id="Xz_mgDwDdjF8GATbOrgD-9" value="&lt;b&gt;1&lt;/b&gt;" style="resizable=0;html=1;align=left;verticalAlign=bottom;" parent="Xz_mgDwDdjF8GATbOrgD-8" connectable="0" vertex="1">
          <mxGeometry x="-1" relative="1" as="geometry" />
        </mxCell>
        <mxCell id="Xz_mgDwDdjF8GATbOrgD-10" value="&lt;b&gt;0..*&lt;/b&gt;" style="resizable=0;html=1;align=right;verticalAlign=bottom;" parent="Xz_mgDwDdjF8GATbOrgD-8" connectable="0" vertex="1">
          <mxGeometry x="1" relative="1" as="geometry">
            <mxPoint x="15" y="-7" as="offset" />
          </mxGeometry>
        </mxCell>
        <mxCell id="Xz_mgDwDdjF8GATbOrgD-12" value="" style="endArrow=none;html=1;rounded=0;dashed=1;dashPattern=1 2;strokeColor=none;exitX=0.619;exitY=1.006;exitDx=0;exitDy=0;exitPerimeter=0;fontStyle=0" parent="WIyWlLk6GJQsqaUBKTNV-1" source="wLO17Js8CSukOj2f2Co--9" target="iWTWJFSF4S6hdbPV3pCy-65" edge="1">
          <mxGeometry relative="1" as="geometry">
            <mxPoint x="1090" y="200" as="sourcePoint" />
            <mxPoint x="1250" y="200" as="targetPoint" />
          </mxGeometry>
        </mxCell>
        <mxCell id="Xz_mgDwDdjF8GATbOrgD-13" value="1" style="resizable=0;html=1;align=left;verticalAlign=bottom;fontStyle=1" parent="Xz_mgDwDdjF8GATbOrgD-12" connectable="0" vertex="1">
          <mxGeometry x="-1" relative="1" as="geometry">
            <mxPoint x="12" y="16" as="offset" />
          </mxGeometry>
        </mxCell>
        <mxCell id="Xz_mgDwDdjF8GATbOrgD-14" value="0..* " style="resizable=0;html=1;align=right;verticalAlign=bottom;fontStyle=1" parent="Xz_mgDwDdjF8GATbOrgD-12" connectable="0" vertex="1">
          <mxGeometry x="1" relative="1" as="geometry" />
        </mxCell>
        <mxCell id="Xz_mgDwDdjF8GATbOrgD-15" value="" style="endArrow=none;html=1;rounded=0;dashed=1;dashPattern=1 2;strokeColor=none;fontStyle=0;exitX=0.397;exitY=0.981;exitDx=0;exitDy=0;exitPerimeter=0;" parent="WIyWlLk6GJQsqaUBKTNV-1" source="wLO17Js8CSukOj2f2Co--9" edge="1">
          <mxGeometry relative="1" as="geometry">
            <mxPoint x="950" y="210" as="sourcePoint" />
            <mxPoint x="1000" y="240" as="targetPoint" />
          </mxGeometry>
        </mxCell>
        <mxCell id="Xz_mgDwDdjF8GATbOrgD-16" value="1" style="resizable=0;html=1;align=left;verticalAlign=bottom;fontStyle=1" parent="Xz_mgDwDdjF8GATbOrgD-15" connectable="0" vertex="1">
          <mxGeometry x="-1" relative="1" as="geometry">
            <mxPoint x="-10" y="10" as="offset" />
          </mxGeometry>
        </mxCell>
        <mxCell id="Xz_mgDwDdjF8GATbOrgD-17" value="0..* " style="resizable=0;html=1;align=right;verticalAlign=bottom;fontStyle=1" parent="Xz_mgDwDdjF8GATbOrgD-15" connectable="0" vertex="1">
          <mxGeometry x="1" relative="1" as="geometry">
            <mxPoint x="-230" y="30" as="offset" />
          </mxGeometry>
        </mxCell>
        <mxCell id="Xz_mgDwDdjF8GATbOrgD-18" value="" style="endArrow=none;html=1;rounded=0;dashed=1;dashPattern=1 2;strokeColor=none;" parent="WIyWlLk6GJQsqaUBKTNV-1" edge="1">
          <mxGeometry relative="1" as="geometry">
            <mxPoint x="1005" y="405" as="sourcePoint" />
            <mxPoint x="1100" y="416" as="targetPoint" />
          </mxGeometry>
        </mxCell>
        <mxCell id="Xz_mgDwDdjF8GATbOrgD-19" value="1" style="resizable=0;html=1;align=left;verticalAlign=bottom;fontStyle=1" parent="Xz_mgDwDdjF8GATbOrgD-18" connectable="0" vertex="1">
          <mxGeometry x="-1" relative="1" as="geometry">
            <mxPoint x="50" y="5" as="offset" />
          </mxGeometry>
        </mxCell>
        <mxCell id="Xz_mgDwDdjF8GATbOrgD-20" value="5..*" style="resizable=0;html=1;align=right;verticalAlign=bottom;fontStyle=1" parent="Xz_mgDwDdjF8GATbOrgD-18" connectable="0" vertex="1">
          <mxGeometry x="1" relative="1" as="geometry">
            <mxPoint x="15" y="-7" as="offset" />
          </mxGeometry>
        </mxCell>
        <mxCell id="Xz_mgDwDdjF8GATbOrgD-21" value="" style="endArrow=none;html=1;rounded=0;dashed=1;dashPattern=1 2;strokeColor=none;entryX=-0.006;entryY=0.074;entryDx=0;entryDy=0;entryPerimeter=0;startArrow=none;" parent="WIyWlLk6GJQsqaUBKTNV-1" target="wLO17Js8CSukOj2f2Co--1" edge="1" source="33fXCFxnljWOuSpnzhvU-13">
          <mxGeometry relative="1" as="geometry">
            <mxPoint x="795" y="334" as="sourcePoint" />
            <mxPoint x="865" y="384" as="targetPoint" />
          </mxGeometry>
        </mxCell>
        <mxCell id="Xz_mgDwDdjF8GATbOrgD-23" value="1" style="resizable=0;html=1;align=right;verticalAlign=bottom;fontStyle=1" parent="Xz_mgDwDdjF8GATbOrgD-21" connectable="0" vertex="1">
          <mxGeometry x="1" relative="1" as="geometry">
            <mxPoint x="76" y="-47" as="offset" />
          </mxGeometry>
        </mxCell>
        <mxCell id="Xz_mgDwDdjF8GATbOrgD-24" value="" style="endArrow=none;html=1;rounded=0;dashed=1;dashPattern=1 2;strokeColor=none;exitX=1;exitY=0.5;exitDx=0;exitDy=0;" parent="WIyWlLk6GJQsqaUBKTNV-1" source="iWTWJFSF4S6hdbPV3pCy-130" target="wLO17Js8CSukOj2f2Co--1" edge="1">
          <mxGeometry relative="1" as="geometry">
            <mxPoint x="804.9999999999998" y="344" as="sourcePoint" />
            <mxPoint x="884.1899999999996" y="394.7360000000001" as="targetPoint" />
          </mxGeometry>
        </mxCell>
        <mxCell id="Xz_mgDwDdjF8GATbOrgD-25" value="1" style="resizable=0;html=1;align=left;verticalAlign=bottom;fontStyle=1" parent="Xz_mgDwDdjF8GATbOrgD-24" connectable="0" vertex="1">
          <mxGeometry x="-1" relative="1" as="geometry">
            <mxPoint x="20" y="10" as="offset" />
          </mxGeometry>
        </mxCell>
        <mxCell id="Xz_mgDwDdjF8GATbOrgD-26" value="1" style="resizable=0;html=1;align=right;verticalAlign=bottom;fontStyle=1" parent="Xz_mgDwDdjF8GATbOrgD-24" connectable="0" vertex="1">
          <mxGeometry x="1" relative="1" as="geometry">
            <mxPoint x="-4" y="18" as="offset" />
          </mxGeometry>
        </mxCell>
        <mxCell id="Xz_mgDwDdjF8GATbOrgD-27" value="" style="endArrow=none;html=1;rounded=0;dashed=1;dashPattern=1 2;strokeColor=none;exitX=1;exitY=0;exitDx=0;exitDy=0;entryX=0.175;entryY=1.055;entryDx=0;entryDy=0;entryPerimeter=0;" parent="WIyWlLk6GJQsqaUBKTNV-1" source="iWTWJFSF4S6hdbPV3pCy-129" edge="1">
          <mxGeometry relative="1" as="geometry">
            <mxPoint x="797.5" y="477.5" as="sourcePoint" />
            <mxPoint x="906.4999999999995" y="494.20000000000005" as="targetPoint" />
          </mxGeometry>
        </mxCell>
        <mxCell id="Xz_mgDwDdjF8GATbOrgD-28" value="1" style="resizable=0;html=1;align=left;verticalAlign=bottom;fontStyle=1" parent="Xz_mgDwDdjF8GATbOrgD-27" connectable="0" vertex="1">
          <mxGeometry x="-1" relative="1" as="geometry">
            <mxPoint x="85" y="46" as="offset" />
          </mxGeometry>
        </mxCell>
        <mxCell id="Xz_mgDwDdjF8GATbOrgD-29" value="1" style="resizable=0;html=1;align=right;verticalAlign=bottom;fontStyle=1" parent="Xz_mgDwDdjF8GATbOrgD-27" connectable="0" vertex="1">
          <mxGeometry x="1" relative="1" as="geometry">
            <mxPoint x="24" y="16" as="offset" />
          </mxGeometry>
        </mxCell>
        <mxCell id="Xz_mgDwDdjF8GATbOrgD-30" value="" style="endArrow=none;html=1;rounded=0;dashed=1;dashPattern=1 2;strokeColor=none;exitX=0.5;exitY=0;exitDx=0;exitDy=0;entryX=0.57;entryY=1.011;entryDx=0;entryDy=0;entryPerimeter=0;" parent="WIyWlLk6GJQsqaUBKTNV-1" target="oz0YalD53Wy_oq5XSP2Q-50" edge="1">
          <mxGeometry relative="1" as="geometry">
            <mxPoint x="220" y="338" as="sourcePoint" />
            <mxPoint x="234.44444444444457" y="305.5" as="targetPoint" />
          </mxGeometry>
        </mxCell>
        <mxCell id="Xz_mgDwDdjF8GATbOrgD-31" value="1" style="resizable=0;html=1;align=left;verticalAlign=bottom;fontStyle=1" parent="Xz_mgDwDdjF8GATbOrgD-30" connectable="0" vertex="1">
          <mxGeometry x="-1" relative="1" as="geometry">
            <mxPoint x="20" y="10" as="offset" />
          </mxGeometry>
        </mxCell>
        <mxCell id="Xz_mgDwDdjF8GATbOrgD-32" value="1" style="resizable=0;html=1;align=right;verticalAlign=bottom;fontStyle=1" parent="Xz_mgDwDdjF8GATbOrgD-30" connectable="0" vertex="1">
          <mxGeometry x="1" relative="1" as="geometry">
            <mxPoint y="8" as="offset" />
          </mxGeometry>
        </mxCell>
        <mxCell id="Xz_mgDwDdjF8GATbOrgD-33" value="Reserva" style="swimlane;fontStyle=1;align=center;verticalAlign=top;childLayout=stackLayout;horizontal=1;startSize=26;horizontalStack=0;resizeParent=1;resizeParentMax=0;resizeLast=0;collapsible=1;marginBottom=0;strokeColor=none;fillColor=none;" parent="WIyWlLk6GJQsqaUBKTNV-1" vertex="1">
          <mxGeometry x="-390" y="156.37" width="280" height="123.25" as="geometry" />
        </mxCell>
        <mxCell id="Xz_mgDwDdjF8GATbOrgD-34" value="" style="line;strokeWidth=1;fillColor=none;align=left;verticalAlign=middle;spacingTop=-1;spacingLeft=3;spacingRight=3;rotatable=0;labelPosition=right;points=[];portConstraint=eastwest;" parent="Xz_mgDwDdjF8GATbOrgD-33" vertex="1">
          <mxGeometry y="26" width="280" height="8" as="geometry" />
        </mxCell>
        <mxCell id="Xz_mgDwDdjF8GATbOrgD-35" value="- «get/set» ticketNumber: string&#xa;- «get/set» userId: string&#xa;&#xa;" style="text;strokeColor=none;fillColor=none;align=left;verticalAlign=top;spacingLeft=4;spacingRight=4;overflow=hidden;rotatable=0;points=[[0,0.5],[1,0.5]];portConstraint=eastwest;" parent="Xz_mgDwDdjF8GATbOrgD-33" vertex="1">
          <mxGeometry y="34" width="280" height="46" as="geometry" />
        </mxCell>
        <mxCell id="Xz_mgDwDdjF8GATbOrgD-36" value="" style="line;strokeWidth=1;fillColor=none;align=left;verticalAlign=middle;spacingTop=-1;spacingLeft=3;spacingRight=3;rotatable=0;labelPosition=right;points=[];portConstraint=eastwest;" parent="Xz_mgDwDdjF8GATbOrgD-33" vertex="1">
          <mxGeometry y="80" width="280" height="8" as="geometry" />
        </mxCell>
        <mxCell id="oKMgDRfPAerwbWezPVLL-5" value="+ Reserva(ticketNo: string, id: string) : Reserva" style="text;strokeColor=none;fillColor=none;align=left;verticalAlign=top;spacingLeft=4;spacingRight=4;overflow=hidden;rotatable=0;points=[[0,0.5],[1,0.5]];portConstraint=eastwest;" vertex="1" parent="Xz_mgDwDdjF8GATbOrgD-33">
          <mxGeometry y="88" width="280" height="35.25" as="geometry" />
        </mxCell>
        <mxCell id="Xz_mgDwDdjF8GATbOrgD-37" value="" style="ellipse;shape=umlEntity;whiteSpace=wrap;html=1;" parent="WIyWlLk6GJQsqaUBKTNV-1" vertex="1">
          <mxGeometry x="-224" y="106.37" width="50" height="50" as="geometry" />
        </mxCell>
        <mxCell id="Xz_mgDwDdjF8GATbOrgD-38" value="" style="edgeStyle=none;html=1;endArrow=open;endSize=12;verticalAlign=bottom;rounded=0;entryX=1;entryY=0.5;entryDx=0;entryDy=0;exitX=0;exitY=0.5;exitDx=0;exitDy=0;" parent="WIyWlLk6GJQsqaUBKTNV-1" source="iWTWJFSF4S6hdbPV3pCy-101" target="Xz_mgDwDdjF8GATbOrgD-37" edge="1">
          <mxGeometry x="0.1197" y="-7" width="160" relative="1" as="geometry">
            <mxPoint x="-39" y="311.5" as="sourcePoint" />
            <mxPoint x="-100" y="346.5" as="targetPoint" />
            <mxPoint as="offset" />
            <Array as="points" />
          </mxGeometry>
        </mxCell>
        <mxCell id="Xz_mgDwDdjF8GATbOrgD-39" value="" style="endArrow=none;html=1;rounded=0;dashed=1;dashPattern=1 2;strokeColor=none;" parent="WIyWlLk6GJQsqaUBKTNV-1" edge="1">
          <mxGeometry relative="1" as="geometry">
            <mxPoint x="-202.68" y="330" as="sourcePoint" />
            <mxPoint x="-193" y="300" as="targetPoint" />
          </mxGeometry>
        </mxCell>
        <mxCell id="Xz_mgDwDdjF8GATbOrgD-40" value="1" style="resizable=0;html=1;align=left;verticalAlign=bottom;fontStyle=1" parent="Xz_mgDwDdjF8GATbOrgD-39" connectable="0" vertex="1">
          <mxGeometry x="-1" relative="1" as="geometry">
            <mxPoint x="-47" y="-10" as="offset" />
          </mxGeometry>
        </mxCell>
        <mxCell id="Xz_mgDwDdjF8GATbOrgD-41" value="1" style="resizable=0;html=1;align=right;verticalAlign=bottom;fontStyle=1" parent="Xz_mgDwDdjF8GATbOrgD-39" connectable="0" vertex="1">
          <mxGeometry x="1" relative="1" as="geometry">
            <mxPoint x="-57" y="-10" as="offset" />
          </mxGeometry>
        </mxCell>
        <mxCell id="Xz_mgDwDdjF8GATbOrgD-42" value="" style="endArrow=none;html=1;rounded=0;dashed=1;dashPattern=1 2;strokeColor=none;entryX=0;entryY=0.331;entryDx=0;entryDy=0;entryPerimeter=0;" parent="WIyWlLk6GJQsqaUBKTNV-1" source="Xz_mgDwDdjF8GATbOrgD-37" edge="1">
          <mxGeometry relative="1" as="geometry">
            <mxPoint x="-103" y="220" as="sourcePoint" />
            <mxPoint x="-92" y="287.3040000000001" as="targetPoint" />
          </mxGeometry>
        </mxCell>
        <mxCell id="Xz_mgDwDdjF8GATbOrgD-43" value="0..*" style="resizable=0;html=1;align=left;verticalAlign=bottom;fontStyle=1" parent="Xz_mgDwDdjF8GATbOrgD-42" connectable="0" vertex="1">
          <mxGeometry x="-1" relative="1" as="geometry">
            <mxPoint x="15" y="18" as="offset" />
          </mxGeometry>
        </mxCell>
        <mxCell id="Xz_mgDwDdjF8GATbOrgD-44" value="1" style="resizable=0;html=1;align=right;verticalAlign=bottom;fontStyle=1" parent="Xz_mgDwDdjF8GATbOrgD-42" connectable="0" vertex="1">
          <mxGeometry x="1" relative="1" as="geometry">
            <mxPoint x="66" y="-57" as="offset" />
          </mxGeometry>
        </mxCell>
        <mxCell id="Xz_mgDwDdjF8GATbOrgD-46" value="" style="endArrow=none;html=1;rounded=0;dashed=1;dashPattern=1 2;strokeColor=none;" parent="WIyWlLk6GJQsqaUBKTNV-1" edge="1">
          <mxGeometry relative="1" as="geometry">
            <mxPoint x="-330" y="580" as="sourcePoint" />
            <mxPoint x="-240" y="590" as="targetPoint" />
          </mxGeometry>
        </mxCell>
        <mxCell id="Xz_mgDwDdjF8GATbOrgD-47" value="1" style="resizable=0;html=1;align=left;verticalAlign=bottom;fontStyle=1" parent="Xz_mgDwDdjF8GATbOrgD-46" connectable="0" vertex="1">
          <mxGeometry x="-1" relative="1" as="geometry">
            <mxPoint x="90" y="30" as="offset" />
          </mxGeometry>
        </mxCell>
        <mxCell id="Xz_mgDwDdjF8GATbOrgD-48" value="1" style="resizable=0;html=1;align=right;verticalAlign=bottom;fontStyle=1" parent="Xz_mgDwDdjF8GATbOrgD-46" connectable="0" vertex="1">
          <mxGeometry x="1" relative="1" as="geometry">
            <mxPoint x="-10" y="190" as="offset" />
          </mxGeometry>
        </mxCell>
        <mxCell id="Xz_mgDwDdjF8GATbOrgD-52" value="Recharge" style="swimlane;fontStyle=1;align=center;verticalAlign=top;childLayout=stackLayout;horizontal=1;startSize=26;horizontalStack=0;resizeParent=1;resizeParentMax=0;resizeLast=0;collapsible=1;marginBottom=0;strokeColor=none;fillColor=none;" parent="WIyWlLk6GJQsqaUBKTNV-1" vertex="1">
          <mxGeometry x="249.99" y="907" width="160" height="143.25" as="geometry" />
        </mxCell>
        <mxCell id="Xz_mgDwDdjF8GATbOrgD-53" value="" style="line;strokeWidth=1;fillColor=none;align=left;verticalAlign=middle;spacingTop=-1;spacingLeft=3;spacingRight=3;rotatable=0;labelPosition=right;points=[];portConstraint=eastwest;" parent="Xz_mgDwDdjF8GATbOrgD-52" vertex="1">
          <mxGeometry y="26" width="160" height="8" as="geometry" />
        </mxCell>
        <mxCell id="Xz_mgDwDdjF8GATbOrgD-54" value="- «get/set» code: string&#xa;- «get/set» date: Date&#xa;- «get/set» time: Time&#xa;- «get/set» cardId: string&#xa;&#xa;" style="text;strokeColor=none;fillColor=none;align=left;verticalAlign=top;spacingLeft=4;spacingRight=4;overflow=hidden;rotatable=0;points=[[0,0.5],[1,0.5]];portConstraint=eastwest;" parent="Xz_mgDwDdjF8GATbOrgD-52" vertex="1">
          <mxGeometry y="34" width="160" height="66" as="geometry" />
        </mxCell>
        <mxCell id="Xz_mgDwDdjF8GATbOrgD-55" value="" style="line;strokeWidth=1;fillColor=none;align=left;verticalAlign=middle;spacingTop=-1;spacingLeft=3;spacingRight=3;rotatable=0;labelPosition=right;points=[];portConstraint=eastwest;" parent="Xz_mgDwDdjF8GATbOrgD-52" vertex="1">
          <mxGeometry y="100" width="160" height="8" as="geometry" />
        </mxCell>
        <mxCell id="3VAejhClfT207Y6dodz3-4" value="+ Recharge() : Recharge" style="text;strokeColor=none;fillColor=none;align=left;verticalAlign=top;spacingLeft=4;spacingRight=4;overflow=hidden;rotatable=0;points=[[0,0.5],[1,0.5]];portConstraint=eastwest;" parent="Xz_mgDwDdjF8GATbOrgD-52" vertex="1">
          <mxGeometry y="108" width="160" height="35.25" as="geometry" />
        </mxCell>
        <mxCell id="Xz_mgDwDdjF8GATbOrgD-56" value="" style="ellipse;shape=umlEntity;whiteSpace=wrap;html=1;" parent="WIyWlLk6GJQsqaUBKTNV-1" vertex="1">
          <mxGeometry x="299.99" y="855" width="50" height="50" as="geometry" />
        </mxCell>
        <mxCell id="Xz_mgDwDdjF8GATbOrgD-57" value="" style="endArrow=none;html=1;rounded=0;dashed=1;dashPattern=1 2;strokeColor=none;entryX=0.5;entryY=0;entryDx=0;entryDy=0;exitX=0.977;exitY=0.62;exitDx=0;exitDy=0;exitPerimeter=0;" parent="WIyWlLk6GJQsqaUBKTNV-1" source="iWTWJFSF4S6hdbPV3pCy-107" target="Xz_mgDwDdjF8GATbOrgD-56" edge="1">
          <mxGeometry relative="1" as="geometry">
            <mxPoint x="240" y="780" as="sourcePoint" />
            <mxPoint x="248.83734879304723" y="822.0388669003908" as="targetPoint" />
          </mxGeometry>
        </mxCell>
        <mxCell id="Xz_mgDwDdjF8GATbOrgD-58" value="1" style="resizable=0;html=1;align=left;verticalAlign=bottom;fontStyle=1" parent="Xz_mgDwDdjF8GATbOrgD-57" connectable="0" vertex="1">
          <mxGeometry x="-1" relative="1" as="geometry">
            <mxPoint x="261" y="125" as="offset" />
          </mxGeometry>
        </mxCell>
        <mxCell id="Xz_mgDwDdjF8GATbOrgD-59" value="0..*" style="resizable=0;html=1;align=right;verticalAlign=bottom;fontStyle=1" parent="Xz_mgDwDdjF8GATbOrgD-57" connectable="0" vertex="1">
          <mxGeometry x="1" relative="1" as="geometry">
            <mxPoint x="25" y="-5" as="offset" />
          </mxGeometry>
        </mxCell>
        <mxCell id="Xz_mgDwDdjF8GATbOrgD-60" value="" style="endArrow=none;html=1;rounded=0;dashed=1;dashPattern=1 2;strokeColor=none;" parent="WIyWlLk6GJQsqaUBKTNV-1" source="33fXCFxnljWOuSpnzhvU-32" target="iWTWJFSF4S6hdbPV3pCy-123" edge="1">
          <mxGeometry relative="1" as="geometry">
            <mxPoint x="31.58" y="844.5" as="sourcePoint" />
            <mxPoint x="40.41734879304711" y="886.5388669003908" as="targetPoint" />
          </mxGeometry>
        </mxCell>
        <mxCell id="Xz_mgDwDdjF8GATbOrgD-61" value="0..*" style="resizable=0;html=1;align=left;verticalAlign=bottom;fontStyle=1" parent="Xz_mgDwDdjF8GATbOrgD-60" connectable="0" vertex="1">
          <mxGeometry x="-1" relative="1" as="geometry">
            <mxPoint x="248" y="48" as="offset" />
          </mxGeometry>
        </mxCell>
        <mxCell id="Xz_mgDwDdjF8GATbOrgD-62" value="1" style="resizable=0;html=1;align=right;verticalAlign=bottom;fontStyle=1" parent="Xz_mgDwDdjF8GATbOrgD-60" connectable="0" vertex="1">
          <mxGeometry x="1" relative="1" as="geometry">
            <mxPoint x="-27" y="-234" as="offset" />
          </mxGeometry>
        </mxCell>
        <mxCell id="Xz_mgDwDdjF8GATbOrgD-63" value="" style="endArrow=none;html=1;rounded=0;dashed=1;dashPattern=1 2;strokeColor=none;" parent="WIyWlLk6GJQsqaUBKTNV-1" edge="1">
          <mxGeometry relative="1" as="geometry">
            <mxPoint x="-49" y="854" as="sourcePoint" />
            <mxPoint x="-149.0026909484747" y="824.0016711931005" as="targetPoint" />
          </mxGeometry>
        </mxCell>
        <mxCell id="Xz_mgDwDdjF8GATbOrgD-64" value="1" style="resizable=0;html=1;align=left;verticalAlign=bottom;fontStyle=1;direction=south;" parent="Xz_mgDwDdjF8GATbOrgD-63" connectable="0" vertex="1">
          <mxGeometry x="-1" relative="1" as="geometry">
            <mxPoint x="76" y="-3" as="offset" />
          </mxGeometry>
        </mxCell>
        <mxCell id="Xz_mgDwDdjF8GATbOrgD-65" value="0..*" style="resizable=0;html=1;align=right;verticalAlign=bottom;fontStyle=1" parent="Xz_mgDwDdjF8GATbOrgD-63" connectable="0" vertex="1">
          <mxGeometry x="1" relative="1" as="geometry">
            <mxPoint x="10" y="30" as="offset" />
          </mxGeometry>
        </mxCell>
        <mxCell id="Xz_mgDwDdjF8GATbOrgD-68" value="" style="edgeStyle=none;html=1;endArrow=open;endSize=12;verticalAlign=bottom;rounded=0;" parent="WIyWlLk6GJQsqaUBKTNV-1" source="Fl9EUuRl_PvDSLYzTZyR-36" target="Xz_mgDwDdjF8GATbOrgD-56" edge="1">
          <mxGeometry x="0.1197" y="-7" width="160" relative="1" as="geometry">
            <mxPoint x="94" y="637.5" as="sourcePoint" />
            <mxPoint x="104" y="671.5" as="targetPoint" />
            <mxPoint as="offset" />
          </mxGeometry>
        </mxCell>
        <mxCell id="Xz_mgDwDdjF8GATbOrgD-72" value="" style="endArrow=none;html=1;rounded=0;dashed=1;dashPattern=1 2;strokeColor=none;entryX=0.042;entryY=0.373;entryDx=0;entryDy=0;entryPerimeter=0;exitX=0.96;exitY=0.351;exitDx=0;exitDy=0;exitPerimeter=0;" parent="WIyWlLk6GJQsqaUBKTNV-1" edge="1">
          <mxGeometry relative="1" as="geometry">
            <mxPoint x="443.9999999999999" y="274.4965" as="sourcePoint" />
            <mxPoint x="697.6049999999999" y="274.55" as="targetPoint" />
          </mxGeometry>
        </mxCell>
        <mxCell id="Xz_mgDwDdjF8GATbOrgD-73" value="1" style="resizable=0;html=1;align=left;verticalAlign=bottom;fontStyle=1" parent="Xz_mgDwDdjF8GATbOrgD-72" connectable="0" vertex="1">
          <mxGeometry x="-1" relative="1" as="geometry">
            <mxPoint x="26" y="236" as="offset" />
          </mxGeometry>
        </mxCell>
        <mxCell id="Xz_mgDwDdjF8GATbOrgD-74" value="1" style="resizable=0;html=1;align=right;verticalAlign=bottom;fontStyle=1" parent="Xz_mgDwDdjF8GATbOrgD-72" connectable="0" vertex="1">
          <mxGeometry x="1" relative="1" as="geometry">
            <mxPoint x="-213" y="183" as="offset" />
          </mxGeometry>
        </mxCell>
        <mxCell id="Xz_mgDwDdjF8GATbOrgD-75" value="" style="endArrow=none;html=1;rounded=0;dashed=1;dashPattern=1 2;strokeColor=none;entryX=0;entryY=0;entryDx=0;entryDy=0;" parent="WIyWlLk6GJQsqaUBKTNV-1" source="iWTWJFSF4S6hdbPV3pCy-49" target="iWTWJFSF4S6hdbPV3pCy-129" edge="1">
          <mxGeometry relative="1" as="geometry">
            <mxPoint x="739.0799999999999" y="504.06999999999994" as="sourcePoint" />
            <mxPoint x="870.0003839638621" y="620" as="targetPoint" />
          </mxGeometry>
        </mxCell>
        <mxCell id="Xz_mgDwDdjF8GATbOrgD-76" value="1" style="resizable=0;html=1;align=left;verticalAlign=bottom;fontStyle=1" parent="Xz_mgDwDdjF8GATbOrgD-75" connectable="0" vertex="1">
          <mxGeometry x="-1" relative="1" as="geometry">
            <mxPoint x="-1" y="5" as="offset" />
          </mxGeometry>
        </mxCell>
        <mxCell id="Xz_mgDwDdjF8GATbOrgD-77" value="0..*" style="resizable=0;html=1;align=right;verticalAlign=bottom;fontStyle=1" parent="Xz_mgDwDdjF8GATbOrgD-75" connectable="0" vertex="1">
          <mxGeometry x="1" relative="1" as="geometry">
            <mxPoint x="-5" y="-9" as="offset" />
          </mxGeometry>
        </mxCell>
        <mxCell id="Xz_mgDwDdjF8GATbOrgD-81" value="" style="endArrow=none;html=1;rounded=0;dashed=1;dashPattern=1 2;strokeColor=none;fontStyle=0;entryX=0;entryY=0;entryDx=0;entryDy=0;exitX=1;exitY=0.299;exitDx=0;exitDy=0;exitPerimeter=0;" parent="WIyWlLk6GJQsqaUBKTNV-1" source="iWTWJFSF4S6hdbPV3pCy-49" target="iWTWJFSF4S6hdbPV3pCy-130" edge="1">
          <mxGeometry relative="1" as="geometry">
            <mxPoint x="880" y="406" as="sourcePoint" />
            <mxPoint x="874.87" y="456.18" as="targetPoint" />
          </mxGeometry>
        </mxCell>
        <mxCell id="Xz_mgDwDdjF8GATbOrgD-82" value="1" style="resizable=0;html=1;align=left;verticalAlign=bottom;fontStyle=1" parent="Xz_mgDwDdjF8GATbOrgD-81" connectable="0" vertex="1">
          <mxGeometry x="-1" relative="1" as="geometry">
            <mxPoint x="-5" y="47" as="offset" />
          </mxGeometry>
        </mxCell>
        <mxCell id="Xz_mgDwDdjF8GATbOrgD-83" value="0..* " style="resizable=0;html=1;align=right;verticalAlign=bottom;fontStyle=1" parent="Xz_mgDwDdjF8GATbOrgD-81" connectable="0" vertex="1">
          <mxGeometry x="1" relative="1" as="geometry">
            <mxPoint x="-7" y="9" as="offset" />
          </mxGeometry>
        </mxCell>
        <mxCell id="Z2Cbit36Qi0rV8sVw9rH-3" value="Admin" style="shape=umlActor;verticalLabelPosition=bottom;verticalAlign=top;html=1;outlineConnect=0;strokeColor=default;" parent="WIyWlLk6GJQsqaUBKTNV-1" vertex="1">
          <mxGeometry x="1188" y="-23.5" width="30" height="60" as="geometry" />
        </mxCell>
        <mxCell id="Z2Cbit36Qi0rV8sVw9rH-5" value="" style="endArrow=classic;html=1;rounded=0;exitX=0.5;exitY=0.5;exitDx=0;exitDy=0;exitPerimeter=0;" parent="WIyWlLk6GJQsqaUBKTNV-1" source="Z2Cbit36Qi0rV8sVw9rH-3" edge="1">
          <mxGeometry width="50" height="50" relative="1" as="geometry">
            <mxPoint x="1059" y="-94" as="sourcePoint" />
            <mxPoint x="1059" y="6" as="targetPoint" />
          </mxGeometry>
        </mxCell>
        <mxCell id="Z2Cbit36Qi0rV8sVw9rH-7" value="BasicUser" style="shape=umlActor;verticalLabelPosition=bottom;verticalAlign=top;html=1;outlineConnect=0;strokeColor=default;" parent="WIyWlLk6GJQsqaUBKTNV-1" vertex="1">
          <mxGeometry x="360" y="461" width="30" height="60" as="geometry" />
        </mxCell>
        <mxCell id="Z2Cbit36Qi0rV8sVw9rH-10" value="" style="endArrow=classic;html=1;rounded=0;exitX=0.5;exitY=0.5;exitDx=0;exitDy=0;exitPerimeter=0;" parent="WIyWlLk6GJQsqaUBKTNV-1" source="Z2Cbit36Qi0rV8sVw9rH-7" target="iWTWJFSF4S6hdbPV3pCy-45" edge="1">
          <mxGeometry width="50" height="50" relative="1" as="geometry">
            <mxPoint x="380" y="800" as="sourcePoint" />
            <mxPoint x="430" y="750" as="targetPoint" />
          </mxGeometry>
        </mxCell>
        <mxCell id="Z2Cbit36Qi0rV8sVw9rH-14" value="" style="ellipse;shape=umlControl;whiteSpace=wrap;html=1;strokeColor=default;fillColor=none;" parent="WIyWlLk6GJQsqaUBKTNV-1" vertex="1">
          <mxGeometry x="49.75" y="827" width="52.5" height="60" as="geometry" />
        </mxCell>
        <mxCell id="Z2Cbit36Qi0rV8sVw9rH-15" value="" style="edgeStyle=none;html=1;endArrow=open;endSize=12;verticalAlign=bottom;rounded=0;entryX=0;entryY=0.5;entryDx=0;entryDy=0;" parent="WIyWlLk6GJQsqaUBKTNV-1" source="Z2Cbit36Qi0rV8sVw9rH-14" target="Xz_mgDwDdjF8GATbOrgD-56" edge="1">
          <mxGeometry x="0.1197" y="-7" width="160" relative="1" as="geometry">
            <mxPoint x="93" y="934" as="sourcePoint" />
            <mxPoint x="279.49454581125474" y="834.7231530329868" as="targetPoint" />
            <mxPoint as="offset" />
          </mxGeometry>
        </mxCell>
        <mxCell id="Z2Cbit36Qi0rV8sVw9rH-16" value="" style="edgeStyle=none;html=1;endArrow=open;endSize=12;verticalAlign=bottom;rounded=0;exitX=0.021;exitY=0.527;exitDx=0;exitDy=0;exitPerimeter=0;" parent="WIyWlLk6GJQsqaUBKTNV-1" source="Z2Cbit36Qi0rV8sVw9rH-14" target="iWTWJFSF4S6hdbPV3pCy-108" edge="1">
          <mxGeometry x="0.1197" y="-7" width="160" relative="1" as="geometry">
            <mxPoint x="271.2668339590091" y="857.1428694168901" as="sourcePoint" />
            <mxPoint x="-29" y="914" as="targetPoint" />
            <mxPoint as="offset" />
          </mxGeometry>
        </mxCell>
        <mxCell id="Z2Cbit36Qi0rV8sVw9rH-17" value="PSController&#xa;" style="swimlane;fontStyle=1;align=center;verticalAlign=top;childLayout=stackLayout;horizontal=1;startSize=18;horizontalStack=0;resizeParent=1;resizeParentMax=0;resizeLast=0;collapsible=1;marginBottom=0;strokeColor=none;fillColor=none;" parent="WIyWlLk6GJQsqaUBKTNV-1" vertex="1">
          <mxGeometry x="-15" y="887" width="205" height="150" as="geometry" />
        </mxCell>
        <mxCell id="Z2Cbit36Qi0rV8sVw9rH-18" value="" style="line;strokeWidth=1;fillColor=none;align=left;verticalAlign=middle;spacingTop=-1;spacingLeft=3;spacingRight=3;rotatable=0;labelPosition=right;points=[];portConstraint=eastwest;" parent="Z2Cbit36Qi0rV8sVw9rH-17" vertex="1">
          <mxGeometry y="18" width="205" height="8" as="geometry" />
        </mxCell>
        <mxCell id="Z2Cbit36Qi0rV8sVw9rH-19" value="- «get/set» cardId: string&#xa;- «get/set» userId: string&#xa;- «get/set» userName: string&#xa;- «get/set» creditCardNo: string&#xa;&#xa;&#xa;&#xa;" style="text;strokeColor=none;fillColor=none;align=left;verticalAlign=top;spacingLeft=4;spacingRight=4;overflow=hidden;rotatable=0;points=[[0,0.5],[1,0.5]];portConstraint=eastwest;" parent="Z2Cbit36Qi0rV8sVw9rH-17" vertex="1">
          <mxGeometry y="26" width="205" height="64" as="geometry" />
        </mxCell>
        <mxCell id="Z2Cbit36Qi0rV8sVw9rH-20" value="" style="line;strokeWidth=1;fillColor=none;align=left;verticalAlign=middle;spacingTop=-1;spacingLeft=3;spacingRight=3;rotatable=0;labelPosition=right;points=[];portConstraint=eastwest;" parent="Z2Cbit36Qi0rV8sVw9rH-17" vertex="1">
          <mxGeometry y="90" width="205" height="8" as="geometry" />
        </mxCell>
        <mxCell id="Z2Cbit36Qi0rV8sVw9rH-21" value="+ PSController(id: string): PSController&#xa;+ requestSmartCard(): void&#xa;+ rechargeSmartCard(): void" style="text;strokeColor=none;fillColor=none;align=left;verticalAlign=top;spacingLeft=4;spacingRight=4;overflow=hidden;rotatable=0;points=[[0,0.5],[1,0.5]];portConstraint=eastwest;" parent="Z2Cbit36Qi0rV8sVw9rH-17" vertex="1">
          <mxGeometry y="98" width="205" height="52" as="geometry" />
        </mxCell>
        <mxCell id="Z2Cbit36Qi0rV8sVw9rH-22" value="1" style="resizable=0;html=1;align=left;verticalAlign=bottom;fontStyle=1" parent="WIyWlLk6GJQsqaUBKTNV-1" connectable="0" vertex="1">
          <mxGeometry x="130" y="1084" as="geometry" />
        </mxCell>
        <mxCell id="Z2Cbit36Qi0rV8sVw9rH-23" value="1" style="resizable=0;html=1;align=right;verticalAlign=bottom;fontStyle=1" parent="WIyWlLk6GJQsqaUBKTNV-1" connectable="0" vertex="1">
          <mxGeometry x="121.49527189859472" y="1050.2524695719917" as="geometry" />
        </mxCell>
        <mxCell id="Z2Cbit36Qi0rV8sVw9rH-24" value="" style="edgeStyle=none;html=1;endArrow=open;endSize=12;verticalAlign=bottom;rounded=0;exitX=0.307;exitY=0.129;exitDx=0;exitDy=0;exitPerimeter=0;" parent="WIyWlLk6GJQsqaUBKTNV-1" source="iWTWJFSF4S6hdbPV3pCy-123" target="Z2Cbit36Qi0rV8sVw9rH-21" edge="1">
          <mxGeometry x="0.1197" y="-7" width="160" relative="1" as="geometry">
            <mxPoint x="157.49638036809807" y="1106" as="sourcePoint" />
            <mxPoint x="194" y="1054.2261904761906" as="targetPoint" />
            <mxPoint as="offset" />
          </mxGeometry>
        </mxCell>
        <mxCell id="Z2Cbit36Qi0rV8sVw9rH-26" value="RegularUser" style="shape=umlActor;verticalLabelPosition=bottom;verticalAlign=top;html=1;outlineConnect=0;strokeColor=default;" parent="WIyWlLk6GJQsqaUBKTNV-1" vertex="1">
          <mxGeometry x="-420" y="388" width="30" height="60" as="geometry" />
        </mxCell>
        <mxCell id="Z2Cbit36Qi0rV8sVw9rH-27" value="" style="endArrow=classic;html=1;rounded=0;exitX=0.5;exitY=0.5;exitDx=0;exitDy=0;exitPerimeter=0;" parent="WIyWlLk6GJQsqaUBKTNV-1" source="Z2Cbit36Qi0rV8sVw9rH-26" target="iWTWJFSF4S6hdbPV3pCy-114" edge="1">
          <mxGeometry width="50" height="50" relative="1" as="geometry">
            <mxPoint x="-600" y="774" as="sourcePoint" />
            <mxPoint x="-460" y="681.5298507462687" as="targetPoint" />
          </mxGeometry>
        </mxCell>
        <mxCell id="Fl9EUuRl_PvDSLYzTZyR-3" value="PaymentService" style="shape=umlActor;verticalLabelPosition=bottom;verticalAlign=top;html=1;outlineConnect=0;strokeColor=default;" parent="WIyWlLk6GJQsqaUBKTNV-1" vertex="1">
          <mxGeometry x="251" y="1075.5" width="30" height="60" as="geometry" />
        </mxCell>
        <mxCell id="Fl9EUuRl_PvDSLYzTZyR-4" value="" style="endArrow=classic;html=1;rounded=0;exitX=0.5;exitY=0.5;exitDx=0;exitDy=0;exitPerimeter=0;entryX=0.983;entryY=0.466;entryDx=0;entryDy=0;entryPerimeter=0;" parent="WIyWlLk6GJQsqaUBKTNV-1" source="Fl9EUuRl_PvDSLYzTZyR-3" target="iWTWJFSF4S6hdbPV3pCy-123" edge="1">
          <mxGeometry width="50" height="50" relative="1" as="geometry">
            <mxPoint x="75" y="1192.5" as="sourcePoint" />
            <mxPoint x="205" y="1104" as="targetPoint" />
          </mxGeometry>
        </mxCell>
        <mxCell id="Fl9EUuRl_PvDSLYzTZyR-5" value="SCOInterface" style="swimlane;fontStyle=1;align=center;verticalAlign=top;childLayout=stackLayout;horizontal=1;startSize=28;horizontalStack=0;resizeParent=1;resizeParentMax=0;resizeLast=0;collapsible=1;marginBottom=0;fillColor=none;strokeColor=none;" parent="WIyWlLk6GJQsqaUBKTNV-1" vertex="1">
          <mxGeometry x="420" y="848.75" width="270" height="110" as="geometry" />
        </mxCell>
        <mxCell id="Fl9EUuRl_PvDSLYzTZyR-6" value="" style="line;strokeWidth=1;fillColor=none;align=left;verticalAlign=middle;spacingTop=-1;spacingLeft=3;spacingRight=3;rotatable=0;labelPosition=right;points=[];portConstraint=eastwest;" parent="Fl9EUuRl_PvDSLYzTZyR-5" vertex="1">
          <mxGeometry y="28" width="270" height="8" as="geometry" />
        </mxCell>
        <mxCell id="Fl9EUuRl_PvDSLYzTZyR-7" value="- «get/set» userId: string" style="text;strokeColor=none;fillColor=none;align=left;verticalAlign=top;spacingLeft=4;spacingRight=4;overflow=hidden;rotatable=0;points=[[0,0.5],[1,0.5]];portConstraint=eastwest;" parent="Fl9EUuRl_PvDSLYzTZyR-5" vertex="1">
          <mxGeometry y="36" width="270" height="26" as="geometry" />
        </mxCell>
        <mxCell id="Fl9EUuRl_PvDSLYzTZyR-8" value="" style="line;strokeWidth=1;fillColor=none;align=left;verticalAlign=middle;spacingTop=-1;spacingLeft=3;spacingRight=3;rotatable=0;labelPosition=right;points=[];portConstraint=eastwest;" parent="Fl9EUuRl_PvDSLYzTZyR-5" vertex="1">
          <mxGeometry y="62" width="270" height="8" as="geometry" />
        </mxCell>
        <mxCell id="Fl9EUuRl_PvDSLYzTZyR-9" value="+ SCOInterface(id: string): SCOInterface&#xa;+ recharge(amount: double, sc: SmartCard) : void&#xa;&#xa;&#xa;&#xa;" style="text;strokeColor=none;fillColor=none;align=left;verticalAlign=top;spacingLeft=4;spacingRight=4;overflow=hidden;rotatable=0;points=[[0,0.5],[1,0.5]];portConstraint=eastwest;" parent="Fl9EUuRl_PvDSLYzTZyR-5" vertex="1">
          <mxGeometry y="70" width="270" height="40" as="geometry" />
        </mxCell>
        <mxCell id="Fl9EUuRl_PvDSLYzTZyR-13" value="" style="shape=umlBoundary;whiteSpace=wrap;html=1;" parent="WIyWlLk6GJQsqaUBKTNV-1" vertex="1">
          <mxGeometry x="481.5" y="790" width="60" height="51.5" as="geometry" />
        </mxCell>
        <mxCell id="Fl9EUuRl_PvDSLYzTZyR-14" value="0..*" style="resizable=0;html=1;align=left;verticalAlign=bottom;fontStyle=1" parent="WIyWlLk6GJQsqaUBKTNV-1" connectable="0" vertex="1">
          <mxGeometry x="211.49999999999977" y="646.4965000000002" as="geometry" />
        </mxCell>
        <mxCell id="Fl9EUuRl_PvDSLYzTZyR-15" value="1" style="resizable=0;html=1;align=right;verticalAlign=bottom;fontStyle=1" parent="WIyWlLk6GJQsqaUBKTNV-1" connectable="0" vertex="1">
          <mxGeometry x="174.99840595726482" y="646.5035713531279" as="geometry" />
        </mxCell>
        <mxCell id="Fl9EUuRl_PvDSLYzTZyR-16" value="SmartCardOwner" style="shape=umlActor;verticalLabelPosition=bottom;verticalAlign=top;html=1;outlineConnect=0;strokeColor=default;" parent="WIyWlLk6GJQsqaUBKTNV-1" vertex="1">
          <mxGeometry x="511.5" y="990" width="30" height="60" as="geometry" />
        </mxCell>
        <mxCell id="Fl9EUuRl_PvDSLYzTZyR-17" value="" style="endArrow=classic;html=1;rounded=0;exitX=0.5;exitY=0;exitDx=0;exitDy=0;exitPerimeter=0;" parent="WIyWlLk6GJQsqaUBKTNV-1" source="Fl9EUuRl_PvDSLYzTZyR-16" target="Fl9EUuRl_PvDSLYzTZyR-9" edge="1">
          <mxGeometry width="50" height="50" relative="1" as="geometry">
            <mxPoint x="-208.75" y="724.48" as="sourcePoint" />
            <mxPoint x="-68.75" y="632.0098507462687" as="targetPoint" />
          </mxGeometry>
        </mxCell>
        <mxCell id="Fl9EUuRl_PvDSLYzTZyR-21" value="" style="edgeStyle=none;html=1;endArrow=open;endSize=12;verticalAlign=bottom;rounded=0;" parent="WIyWlLk6GJQsqaUBKTNV-1" source="Fl9EUuRl_PvDSLYzTZyR-35" target="oz0YalD53Wy_oq5XSP2Q-55" edge="1">
          <mxGeometry x="0.1197" y="-7" width="160" relative="1" as="geometry">
            <mxPoint x="70.59459459459458" y="607" as="sourcePoint" />
            <mxPoint x="150" y="610" as="targetPoint" />
            <mxPoint as="offset" />
          </mxGeometry>
        </mxCell>
        <mxCell id="Fl9EUuRl_PvDSLYzTZyR-25" value="" style="ellipse;shape=umlControl;whiteSpace=wrap;html=1;strokeColor=default;fillColor=none;" parent="WIyWlLk6GJQsqaUBKTNV-1" vertex="1">
          <mxGeometry x="-253" y="622.5" width="52.5" height="60" as="geometry" />
        </mxCell>
        <mxCell id="Fl9EUuRl_PvDSLYzTZyR-26" value="RegularUserController&#xa;" style="swimlane;fontStyle=1;align=center;verticalAlign=top;childLayout=stackLayout;horizontal=1;startSize=18;horizontalStack=0;resizeParent=1;resizeParentMax=0;resizeLast=0;collapsible=1;marginBottom=0;strokeColor=none;fillColor=none;" parent="WIyWlLk6GJQsqaUBKTNV-1" vertex="1">
          <mxGeometry x="-442" y="683.5" width="303" height="90" as="geometry" />
        </mxCell>
        <mxCell id="Fl9EUuRl_PvDSLYzTZyR-27" value="" style="line;strokeWidth=1;fillColor=none;align=left;verticalAlign=middle;spacingTop=-1;spacingLeft=3;spacingRight=3;rotatable=0;labelPosition=right;points=[];portConstraint=eastwest;" parent="Fl9EUuRl_PvDSLYzTZyR-26" vertex="1">
          <mxGeometry y="18" width="303" height="8" as="geometry" />
        </mxCell>
        <mxCell id="Fl9EUuRl_PvDSLYzTZyR-28" value="- «get/set» userId: string&#xa;&#xa;&#xa;&#xa;" style="text;strokeColor=none;fillColor=none;align=left;verticalAlign=top;spacingLeft=4;spacingRight=4;overflow=hidden;rotatable=0;points=[[0,0.5],[1,0.5]];portConstraint=eastwest;" parent="Fl9EUuRl_PvDSLYzTZyR-26" vertex="1">
          <mxGeometry y="26" width="303" height="24" as="geometry" />
        </mxCell>
        <mxCell id="Fl9EUuRl_PvDSLYzTZyR-29" value="" style="line;strokeWidth=1;fillColor=none;align=left;verticalAlign=middle;spacingTop=-1;spacingLeft=3;spacingRight=3;rotatable=0;labelPosition=right;points=[];portConstraint=eastwest;" parent="Fl9EUuRl_PvDSLYzTZyR-26" vertex="1">
          <mxGeometry y="50" width="303" height="8" as="geometry" />
        </mxCell>
        <mxCell id="Fl9EUuRl_PvDSLYzTZyR-30" value="+ RegularUSerController(id: string): RegualrUserController&#xa;+ requestSmartCard(): void" style="text;strokeColor=none;fillColor=none;align=left;verticalAlign=top;spacingLeft=4;spacingRight=4;overflow=hidden;rotatable=0;points=[[0,0.5],[1,0.5]];portConstraint=eastwest;" parent="Fl9EUuRl_PvDSLYzTZyR-26" vertex="1">
          <mxGeometry y="58" width="303" height="32" as="geometry" />
        </mxCell>
        <mxCell id="Fl9EUuRl_PvDSLYzTZyR-31" value="" style="edgeStyle=none;html=1;endArrow=open;endSize=12;verticalAlign=bottom;rounded=0;exitX=0.762;exitY=0.198;exitDx=0;exitDy=0;exitPerimeter=0;" parent="WIyWlLk6GJQsqaUBKTNV-1" source="Fl9EUuRl_PvDSLYzTZyR-25" target="oz0YalD53Wy_oq5XSP2Q-53" edge="1">
          <mxGeometry x="0.1197" y="-7" width="160" relative="1" as="geometry">
            <mxPoint x="-143.57000000000016" y="672.0664999999999" as="sourcePoint" />
            <mxPoint x="-260" y="590" as="targetPoint" />
            <mxPoint as="offset" />
          </mxGeometry>
        </mxCell>
        <mxCell id="Fl9EUuRl_PvDSLYzTZyR-32" value="" style="endArrow=none;html=1;rounded=0;dashed=1;dashPattern=1 2;strokeColor=none;" parent="WIyWlLk6GJQsqaUBKTNV-1" source="iWTWJFSF4S6hdbPV3pCy-106" edge="1">
          <mxGeometry relative="1" as="geometry">
            <mxPoint x="-610" y="430.5" as="sourcePoint" />
            <mxPoint x="-390" y="430.5" as="targetPoint" />
          </mxGeometry>
        </mxCell>
        <mxCell id="Fl9EUuRl_PvDSLYzTZyR-33" value="1" style="resizable=0;html=1;align=left;verticalAlign=bottom;fontStyle=1" parent="Fl9EUuRl_PvDSLYzTZyR-32" connectable="0" vertex="1">
          <mxGeometry x="-1" relative="1" as="geometry">
            <mxPoint x="-55" y="113" as="offset" />
          </mxGeometry>
        </mxCell>
        <mxCell id="Fl9EUuRl_PvDSLYzTZyR-34" value="0..*" style="resizable=0;html=1;align=right;verticalAlign=bottom;fontStyle=1" parent="Fl9EUuRl_PvDSLYzTZyR-32" connectable="0" vertex="1">
          <mxGeometry x="1" relative="1" as="geometry">
            <mxPoint x="210" y="220" as="offset" />
          </mxGeometry>
        </mxCell>
        <mxCell id="Fl9EUuRl_PvDSLYzTZyR-35" value="" style="ellipse;shape=umlControl;whiteSpace=wrap;html=1;strokeColor=default;fillColor=none;" parent="WIyWlLk6GJQsqaUBKTNV-1" vertex="1">
          <mxGeometry x="211.5" y="636.5" width="52.5" height="60" as="geometry" />
        </mxCell>
        <mxCell id="Fl9EUuRl_PvDSLYzTZyR-36" value="SCOController&#xa;" style="swimlane;fontStyle=1;align=center;verticalAlign=top;childLayout=stackLayout;horizontal=1;startSize=18;horizontalStack=0;resizeParent=1;resizeParentMax=0;resizeLast=0;collapsible=1;marginBottom=0;strokeColor=none;fillColor=none;" parent="WIyWlLk6GJQsqaUBKTNV-1" vertex="1">
          <mxGeometry x="169.5" y="696.5" width="230" height="100" as="geometry" />
        </mxCell>
        <mxCell id="Fl9EUuRl_PvDSLYzTZyR-37" value="" style="line;strokeWidth=1;fillColor=none;align=left;verticalAlign=middle;spacingTop=-1;spacingLeft=3;spacingRight=3;rotatable=0;labelPosition=right;points=[];portConstraint=eastwest;" parent="Fl9EUuRl_PvDSLYzTZyR-36" vertex="1">
          <mxGeometry y="18" width="230" height="8" as="geometry" />
        </mxCell>
        <mxCell id="Fl9EUuRl_PvDSLYzTZyR-38" value="- «get/set» userId: string&#xa;&#xa;&#xa;&#xa;" style="text;strokeColor=none;fillColor=none;align=left;verticalAlign=top;spacingLeft=4;spacingRight=4;overflow=hidden;rotatable=0;points=[[0,0.5],[1,0.5]];portConstraint=eastwest;" parent="Fl9EUuRl_PvDSLYzTZyR-36" vertex="1">
          <mxGeometry y="26" width="230" height="24" as="geometry" />
        </mxCell>
        <mxCell id="Fl9EUuRl_PvDSLYzTZyR-39" value="" style="line;strokeWidth=1;fillColor=none;align=left;verticalAlign=middle;spacingTop=-1;spacingLeft=3;spacingRight=3;rotatable=0;labelPosition=right;points=[];portConstraint=eastwest;" parent="Fl9EUuRl_PvDSLYzTZyR-36" vertex="1">
          <mxGeometry y="50" width="230" height="8" as="geometry" />
        </mxCell>
        <mxCell id="Fl9EUuRl_PvDSLYzTZyR-40" value="+ SCOController(id : string) : SCOController&#xa;+ requestSmartCard(): void" style="text;strokeColor=none;fillColor=none;align=left;verticalAlign=top;spacingLeft=4;spacingRight=4;overflow=hidden;rotatable=0;points=[[0,0.5],[1,0.5]];portConstraint=eastwest;" parent="Fl9EUuRl_PvDSLYzTZyR-36" vertex="1">
          <mxGeometry y="58" width="230" height="42" as="geometry" />
        </mxCell>
        <mxCell id="Fl9EUuRl_PvDSLYzTZyR-41" value="" style="edgeStyle=none;html=1;endArrow=open;endSize=12;verticalAlign=bottom;rounded=0;" parent="WIyWlLk6GJQsqaUBKTNV-1" source="Fl9EUuRl_PvDSLYzTZyR-13" target="Fl9EUuRl_PvDSLYzTZyR-36" edge="1">
          <mxGeometry x="0.1197" y="-7" width="160" relative="1" as="geometry">
            <mxPoint x="418.25" y="807.5" as="sourcePoint" />
            <mxPoint x="511.5000000000132" y="750" as="targetPoint" />
            <mxPoint as="offset" />
          </mxGeometry>
        </mxCell>
        <mxCell id="Fl9EUuRl_PvDSLYzTZyR-42" value="1" style="resizable=0;html=1;align=left;verticalAlign=bottom;fontStyle=1" parent="WIyWlLk6GJQsqaUBKTNV-1" connectable="0" vertex="1">
          <mxGeometry x="1010.0030395768631" y="973.6232475697351" as="geometry">
            <mxPoint x="-564" y="-185" as="offset" />
          </mxGeometry>
        </mxCell>
        <mxCell id="Fl9EUuRl_PvDSLYzTZyR-43" value="1" style="resizable=0;html=1;align=right;verticalAlign=bottom;fontStyle=1" parent="WIyWlLk6GJQsqaUBKTNV-1" connectable="0" vertex="1">
          <mxGeometry x="481.5019580052382" y="790.0018603618803" as="geometry" />
        </mxCell>
        <mxCell id="33fXCFxnljWOuSpnzhvU-13" value="Fare" style="swimlane;fontStyle=1;align=center;verticalAlign=top;childLayout=stackLayout;horizontal=1;startSize=26;horizontalStack=0;resizeParent=1;resizeParentMax=0;resizeLast=0;collapsible=1;marginBottom=0;fillColor=none;strokeColor=none;" parent="WIyWlLk6GJQsqaUBKTNV-1" vertex="1">
          <mxGeometry x="670" y="329.5" width="203.75" height="113.25" as="geometry" />
        </mxCell>
        <mxCell id="iWTWJFSF4S6hdbPV3pCy-67" value="" style="line;strokeWidth=1;fillColor=none;align=left;verticalAlign=middle;spacingTop=-1;spacingLeft=3;spacingRight=3;rotatable=0;labelPosition=right;points=[];portConstraint=eastwest;" parent="33fXCFxnljWOuSpnzhvU-13" vertex="1">
          <mxGeometry y="26" width="203.75" height="8" as="geometry" />
        </mxCell>
        <mxCell id="33fXCFxnljWOuSpnzhvU-14" value="- «get/set» routeId: string&#xa;- «get/set» cost: double&#xa;" style="text;strokeColor=none;fillColor=none;align=left;verticalAlign=top;spacingLeft=4;spacingRight=4;overflow=hidden;rotatable=0;points=[[0,0.5],[1,0.5]];portConstraint=eastwest;" parent="33fXCFxnljWOuSpnzhvU-13" vertex="1">
          <mxGeometry y="34" width="203.75" height="36" as="geometry" />
        </mxCell>
        <mxCell id="iWTWJFSF4S6hdbPV3pCy-68" value="" style="line;strokeWidth=1;fillColor=none;align=left;verticalAlign=middle;spacingTop=-1;spacingLeft=3;spacingRight=3;rotatable=0;labelPosition=right;points=[];portConstraint=eastwest;" parent="33fXCFxnljWOuSpnzhvU-13" vertex="1">
          <mxGeometry y="70" width="203.75" height="8" as="geometry" />
        </mxCell>
        <mxCell id="3VAejhClfT207Y6dodz3-11" value="+ Fare(id : string, cost : doble) : Fare" style="text;strokeColor=none;fillColor=none;align=left;verticalAlign=top;spacingLeft=4;spacingRight=4;overflow=hidden;rotatable=0;points=[[0,0.5],[1,0.5]];portConstraint=eastwest;" parent="33fXCFxnljWOuSpnzhvU-13" vertex="1">
          <mxGeometry y="78" width="203.75" height="35.25" as="geometry" />
        </mxCell>
        <mxCell id="oKMgDRfPAerwbWezPVLL-6" value="" style="endArrow=none;html=1;rounded=0;dashed=1;dashPattern=1 2;strokeColor=none;entryX=-0.006;entryY=0.074;entryDx=0;entryDy=0;entryPerimeter=0;" edge="1" parent="WIyWlLk6GJQsqaUBKTNV-1" target="33fXCFxnljWOuSpnzhvU-13">
          <mxGeometry relative="1" as="geometry">
            <mxPoint x="795" y="334" as="sourcePoint" />
            <mxPoint x="873.9200000000001" y="385.3280000000002" as="targetPoint" />
          </mxGeometry>
        </mxCell>
        <mxCell id="oKMgDRfPAerwbWezPVLL-7" value="1" style="resizable=0;html=1;align=left;verticalAlign=bottom;fontStyle=1" connectable="0" vertex="1" parent="oKMgDRfPAerwbWezPVLL-6">
          <mxGeometry x="-1" relative="1" as="geometry">
            <mxPoint x="-5" y="-4" as="offset" />
          </mxGeometry>
        </mxCell>
      </root>
    </mxGraphModel>
  </diagram>
</mxfile>
